<?xml version="1.0" encoding="utf-8"?>
<!-- Generator: Adobe Illustrator 24.3.2, SVG Export Plug-In . SVG Version: 6.00 Build 0)  -->
<svg version="1.1" id="Layer_1" xmlns="http://www.w3.org/2000/svg" xmlns:xlink="http://www.w3.org/1999/xlink" x="0px" y="0px"
	 viewBox="0 0 1972 1949.7" style="enable-background:new 0 0 1972 1949.7;" xml:space="preserve">
<style type="text/css">
	.st0{fill:none;stroke:#FFFFFF;stroke-width:3;stroke-miterlimit:4;}
</style>
<rect x="651.5" y="637.2" transform="matrix(0.7071 -0.7071 0.7071 0.7071 -398.7224 982.7888)" class="st0" width="671" height="671"/>
<rect x="316" y="301.7" transform="matrix(0.7071 -0.7071 0.7071 0.7071 -398.7224 982.7888)" class="st0" width="1341.9" height="1341.9"/>
<rect x="332.8" y="318.5" transform="matrix(0.7071 -0.7071 0.7071 0.7071 -398.7224 982.7889)" class="st0" width="1308.3" height="1308.3"/>
<rect x="349.6" y="335.3" transform="matrix(0.7071 -0.7071 0.7071 0.7071 -398.7224 982.7887)" class="st0" width="1274.8" height="1274.8"/>
<rect x="366.4" y="352.1" transform="matrix(0.7071 -0.7071 0.7071 0.7071 -398.7224 982.7888)" class="st0" width="1241.2" height="1241.2"/>
<rect x="383.1" y="368.9" transform="matrix(0.7071 -0.7071 0.7071 0.7071 -398.7224 982.7887)" class="st0" width="1207.7" height="1207.7"/>
<rect x="399.9" y="385.6" transform="matrix(0.7071 -0.7071 0.7071 0.7071 -398.7062 982.8278)" class="st0" width="1174.2" height="1174.2"/>
<rect x="416.7" y="402.4" transform="matrix(0.7071 -0.7071 0.7071 0.7071 -398.7063 982.8278)" class="st0" width="1140.6" height="1140.6"/>
<rect x="433.4" y="419.2" transform="matrix(0.7071 -0.7071 0.7071 0.7071 -398.7614 982.8051)" class="st0" width="1107.1" height="1107.1"/>
<rect x="450.2" y="436" transform="matrix(0.7071 -0.7071 0.7071 0.7071 -398.7614 982.8051)" class="st0" width="1073.5" height="1073.5"/>
<rect x="467" y="452.8" transform="matrix(0.7071 -0.7071 0.7071 0.7071 -398.7614 982.8049)" class="st0" width="1040" height="1040"/>
<rect x="483.7" y="469.5" transform="matrix(0.7071 -0.7071 0.7071 0.7071 -398.7385 982.7498)" class="st0" width="1006.4" height="1006.4"/>
<rect x="500.5" y="486.3" transform="matrix(0.7071 -0.7071 0.7071 0.7071 -398.7386 982.7497)" class="st0" width="972.9" height="972.9"/>
<rect x="517.3" y="503" transform="matrix(0.7071 -0.7071 0.7071 0.7071 -398.7385 982.7498)" class="st0" width="939.3" height="939.3"/>
<rect x="534" y="519.8" transform="matrix(0.7071 -0.7071 0.7071 0.7071 -398.7385 982.7498)" class="st0" width="905.8" height="905.8"/>
<rect x="550.8" y="536.6" transform="matrix(0.7071 -0.7071 0.7071 0.7071 -398.7385 982.7498)" class="st0" width="872.2" height="872.2"/>
<rect x="567.6" y="553.3" transform="matrix(0.7071 -0.7071 0.7071 0.7071 -398.7224 982.7888)" class="st0" width="838.7" height="838.7"/>
<rect x="584.4" y="570.1" transform="matrix(0.7071 -0.7071 0.7071 0.7071 -398.7224 982.7888)" class="st0" width="805.2" height="805.2"/>
<rect x="601.2" y="586.9" transform="matrix(0.7071 -0.7071 0.7071 0.7071 -398.7224 982.7888)" class="st0" width="771.6" height="771.6"/>
<rect x="617.9" y="603.7" transform="matrix(0.7071 -0.7071 0.7071 0.7071 -398.7224 982.7888)" class="st0" width="738.1" height="738.1"/>
<rect x="634.7" y="620.4" transform="matrix(0.7071 -0.7071 0.7071 0.7071 -398.7224 982.7888)" class="st0" width="704.5" height="704.5"/>
</svg>
