<svg xmlns="http://www.w3.org/2000/svg" width="26.56" height="26.56" viewBox="0 0 26.56 26.56"><defs><style>.cls-1{fill:#7e7d82;}.cls-2{fill:#fff;}</style></defs><title>icon-10</title><g id="marker"><circle class="cls-1" cx="13.28" cy="13.28" r="13.28"/></g><g id="_10" data-name="10"><path class="cls-2" d="M10.76,15.54H9.82V14.19a5.58,5.58,0,0,0,1.64-1.26h1.17V26.31H10.76Z" transform="translate(-2.45 -7.01)"/><path class="cls-2" d="M14.74,16.32c0-1.58.06-1.92.42-2.51a2.65,2.65,0,0,1,2.23-1.08,2.65,2.65,0,0,1,2.22,1.08c.36.59.42.93.42,2.51V22.9c0,1.61-.06,1.93-.42,2.51a2.61,2.61,0,0,1-2.22,1.1,2.62,2.62,0,0,1-2.23-1.1c-.36-.58-.42-.92-.42-2.51Zm3.43-.76c0-.76-.22-1.08-.78-1.08s-.79.32-.79,1.08v8.13c0,.76.22,1.08.79,1.08s.78-.32.78-1.08Z" transform="translate(-2.45 -7.01)"/></g></svg>