<svg id="Layer_1" data-name="Layer 1" xmlns="http://www.w3.org/2000/svg" width="26.6" height="26.6" viewBox="0 0 26.6 26.6"><defs><style>.cls-1{fill:#7e7d82;}.cls-2{isolation:isolate;}.cls-3{fill:#fff;}</style></defs><title>icon-2</title><g id="marker"><circle class="cls-1" cx="13.3" cy="13.3" r="13.3"/></g><g id="_2_Alternate" data-name="2 Alternate"><g class="cls-2"><path class="cls-3" d="M18.2,26.3V24.8c.5-1,.5-1,1.9-3.7,1.2-2.5,1.4-3.2,1.4-4.9,0-1.3-.1-1.7-.6-1.7s-.8.4-.8,2.4H18.4v-.6c0-2.3.9-3.5,2.6-3.5,1.5,0,2.4,1,2.4,2.9a15,15,0,0,1-1.6,5.9c-.1.2-.6,1.2-1.6,3h3.1v1.7Z" transform="translate(-7.4 -7)"/></g></g></svg>