<svg xmlns="http://www.w3.org/2000/svg" width="26.56" height="26.56" viewBox="0 0 26.56 26.56"><defs><style>.cls-1{fill:#7e7d82;}.cls-2{isolation:isolate;}.cls-3{fill:#fff;}</style></defs><title>icon-8</title><g id="marker"><circle class="cls-1" cx="13.28" cy="13.28" r="13.28"/></g><g id="_8" data-name="8"><g class="cls-2"><path class="cls-3" d="M18.3,22.9a4.37,4.37,0,0,1-.62,2.75,2.4,2.4,0,0,1-1.93.86,2.43,2.43,0,0,1-1.94-.86,4.12,4.12,0,0,1-.6-2.75c0-3,.08-3.29,1.12-3.71-.88-.64-1-1-1-3.19a3.66,3.66,0,0,1,.56-2.43,2.22,2.22,0,0,1,1.84-.84,2.23,2.23,0,0,1,1.85.84A3.82,3.82,0,0,1,18.14,16c0,2.21-.1,2.53-1,3.17C18.2,19.61,18.3,20,18.3,22.9ZM15,23.6c0,.91.18,1.19.72,1.19s.73-.32.73-1.19V21.36c0-.86-.21-1.19-.73-1.19s-.72.29-.72,1.19Zm.06-6.42c0,.79.18,1.09.66,1.09s.65-.3.65-1.09V15.42c0-.78-.19-1.09-.65-1.09s-.66.31-.66,1.09Z" transform="translate(-2.45 -7.01)"/></g></g></svg>