<svg xmlns="http://www.w3.org/2000/svg" width="26.56" height="26.56" viewBox="0 0 26.56 26.56"><defs><style>.cls-1{fill:#7e7d82;}.cls-2{isolation:isolate;}.cls-3{fill:#fff;}</style></defs><title>icon-6</title><g id="marker"><circle class="cls-1" cx="13.28" cy="13.28" r="13.28"/></g><g id="_6" data-name="6"><g class="cls-2"><path class="cls-3" d="M16.42,16.34c0-.26,0-.38,0-.54,0-.92-.23-1.32-.73-1.32a.69.69,0,0,0-.58.34,1.8,1.8,0,0,0-.12.92v3a1.89,1.89,0,0,1,1.47-.78,1.68,1.68,0,0,1,1.36.7c.4.56.5,1.1.5,2.65v2.24c0,1.87-1,3-2.65,3s-2.54-1.1-2.54-2.84V15.5a2.47,2.47,0,0,1,2.5-2.77,2.36,2.36,0,0,1,2.23,1.4,5.26,5.26,0,0,1,.3,2.21ZM15,24a.74.74,0,0,0,.72.8q.75,0,.75-1V20.92c0-1.11-.14-1.43-.63-1.43A1.16,1.16,0,0,0,15,20Z" transform="translate(-2.45 -7.01)"/></g></g></svg>