<svg xmlns="http://www.w3.org/2000/svg" width="26.56" height="26.56" viewBox="0 0 26.56 26.56"><defs><style>.cls-1{fill:#7e7d82;}.cls-2{isolation:isolate;}.cls-3{fill:#fff;}</style></defs><title>icon-3</title><g id="marker"><circle class="cls-1" cx="13.28" cy="13.28" r="13.28"/></g><g id="_3" data-name="3"><g class="cls-2"><path class="cls-3" d="M15,22.48c0,.24,0,.36,0,.52,0,1.29.2,1.77.76,1.77a.58.58,0,0,0,.52-.32,2.31,2.31,0,0,0,.11-1.05V21.58c0-1-.39-1.45-1.23-1.45h-.26v-1.7c.58,0,.8-.08,1-.32A1.49,1.49,0,0,0,16.36,17V15.22c0-.46-.23-.74-.59-.74a.55.55,0,0,0-.62.48,7.39,7.39,0,0,0-.06,1.52H13.35V16c0-2.21.78-3.27,2.36-3.27a2.26,2.26,0,0,1,1.81.84A3.69,3.69,0,0,1,18.08,16c0,2.21-.1,2.53-1,3.17,1,.44,1.1.72,1.1,3.69a4.19,4.19,0,0,1-.6,2.77,2.42,2.42,0,0,1-2,.86c-1.68,0-2.46-1-2.46-3.21,0-.28,0-.44,0-.82Z" transform="translate(-2.45 -7.01)"/></g></g></svg>