<?xml version="1.0" encoding="utf-8"?>
<!-- Generator: Adobe Illustrator 27.5.0, SVG Export Plug-In . SVG Version: 6.00 Build 0)  -->
<svg version="1.1" id="Layer_1" xmlns="http://www.w3.org/2000/svg" xmlns:xlink="http://www.w3.org/1999/xlink" x="0px" y="0px"
	 viewBox="0 0 1916.4 906.6" style="enable-background:new 0 0 1916.4 906.6;" xml:space="preserve">
<style type="text/css">
	.st0{fill:#A25F53;}
	.st1{clip-path:url(#SVGID_00000156564879331722050400000015731345342174921633_);fill:#AB6F65;}
</style>
<rect x="-1" y="0.2" class="st0" width="1920" height="906.7"/>
<g>
	<defs>
		<rect id="SVGID_1_" x="-1" y="0.2" width="1920" height="906.7"/>
	</defs>
	<clipPath id="SVGID_00000048503424825588036230000012650663149867916975_">
		<use xlink:href="#SVGID_1_"  style="overflow:visible;"/>
	</clipPath>
	<path style="clip-path:url(#SVGID_00000048503424825588036230000012650663149867916975_);fill:#AB6F65;" d="M-718.8,1599.3
		c-22.9-38.7-13-161.4-12.2-187.9c2.8-85.5,16.3-172.6,56.8-245.3c42.8-76.7,111.2-129.3,183.3-163.8c72.2-34.6,149-53,224.6-75.3
		c111.4-32.9,221-74.7,327.7-124.9c41.2-19.4,86.3-45.2,100.7-94.7c16.4-56.4-14.9-116-49.4-159.7C55.1,474.6-15.1,416.8-86.1,362.2
		c-105.1-80.9-213.1-156.4-321-231.9C-459.5,93.7-512,57-568,28.9c-30-15.1-65.5-27.4-94.3-9.1C-713.8,52.4-708.2,159-722.2,217
		c2.2-9.2-14.3-70.9-14.7-85.6c-1.4-56.2,8.1-110.7,8.9-166.5c0.6-43.8,52.7-40.8,77.3-40.6c130.2,0.9,259.1-0.1,389.4-0.4
		c69.1-0.1,140.4,10.1,200.8,52.5C5.4,22.6,58.6,90.9,122.4,140.7C249.4,240,379.3,334,506.6,432.8c35.9,27.9,69.6,61.5,99.4,98
		c46.5,56.9,51.2,128.8,18.6,198.3c-31.5,67.3-83.3,107.7-139.1,142c-72.2,44.4-150.9,66.6-229.7,87.4
		c-203.4,53.7-407.2,105.5-610.4,160c-140.1,37.6-230.3,139.7-273,301c-13,49.1-20.7,99.1-35.4,147.7c-5.9,19.5-17.1,39.3-34.3,43.5
		C-706.6,1612.7-713.6,1608.3-718.8,1599.3"/>
	<path style="clip-path:url(#SVGID_00000048503424825588036230000012650663149867916975_);fill:#AB6F65;" d="M592.4-67.2h608
		c0.2,2.2,0.4,4.5,0.6,6.7c-96.7,16.1-193.4,32.1-290.1,48.2c0,0.9,0.1,1.8,0.1,2.7c2.5,0.2,5.1,0.6,7.6,0.6
		c92.1-1.3,184.1-4.1,276.1-3.3c51.6,0.5,103.9,2,154.7,11.9c88.6,17.3,152.7,78.8,194.3,171.6c58,129.5,89.4,267.2,84.1,414.4
		c-4.7,129.8-41.6,247.6-102.8,354.7c-47.1,82.5-96.6,163.1-144.4,245c-12,20.5-23.8,41.7-31.9,64.5c-12.3,34.6,1.4,57.2,33.3,60.5
		c78.6,8.2,156.3,2.1,233.5-17.5c278.3-70.7,519-222.3,713.1-468.1c84.3-106.8,162.6-220.8,239-335.7
		c107.9-162.2,211.6-328.3,317.1-492.7c3.1-4.9,6.4-9.7,9.6-14.5c35.5-52.8,68.3-64.9,123.3-45.6c1.3,0.4,2.3,1.8,4.6,3.8
		c-2.5,4.6-4.7,9.3-7.4,13.5c-162.7,257.7-324.4,516.1-488.5,772.6c-101.1,158-214.4,302.8-349.3,422.8
		c-100.1,89-211.9,150.9-328.4,203.3c-164.4,74-332.3,133.2-506.5,164.6c-75.8,13.7-152.6,22.5-229.2,27.7
		c-67.7,4.5-135.9,3.2-203.7-0.2c-36.9-1.9-73.7-11.9-109.9-21.6c-21.5-5.7-39.8-23-42.9-50c-3-25.7,13.2-43.5,30.4-55.9
		c50.3-36.2,101.7-70.5,152.1-106.5c92.8-66.2,187.4-129.3,277.2-200.7c105.4-83.8,191.2-191.5,249.4-326.2
		c79-183,80.6-368.5,3.5-552.2c-41-97.7-112.2-149.4-205.2-155.3c-105-6.7-210.1-11.1-315.2-17C831,52.2,719,21.6,616.5-49.4
		C609.6-54.1,603.1-59.3,592.4-67.2"/>
	<path style="clip-path:url(#SVGID_00000048503424825588036230000012650663149867916975_);fill:#AB6F65;" d="M-224.6,1598
		c46.7-29.8,92.2-62.8,140.5-88.6c142.6-76.3,284.9-153.7,430.1-222.9c104.3-49.7,213-86.6,319.6-129.7
		c110.3-44.6,220.1-91,322.7-157.1c131-84.3,225.6-205.5,265.6-378.1c26.6-114.8,8.7-217.7-66.2-302.6c-37.6-42.6-85-61.1-134.4-73
		c-101.2-24.4-202.5-47.8-303.9-71.1C624.5,146.2,509.1,88,398,16.7c-34.8-22.3-70.2-43.1-106.8-65.4c1.6-6.3,3.1-12.3,5-20
		c77.4-10.4,154.5-15,221.7,39.6c114.2,92.9,242,137.3,377.8,156.8c97.3,14,194.7,27.4,291.7,43.6c41.5,6.9,82.7,17.9,117.8,48.3
		c53.2,46,77.7,111.5,90.5,184.5c30.5,172.9-14,321.7-106.8,454.9c-96.7,138.7-220.2,234.3-359.5,301.8
		c-123.9,60-249.6,114.9-375,170.3c-125.4,55.3-243.9,125-351.4,219.6c-14.7,12.9-30.9,23.6-46,36c-26.1,21.5-54.4,30.4-86.6,29.3
		c-76.4-2.6-152.8-2.6-229.2-4.4c-21.5-0.5-43-3.6-64.5-5.6C-223.6,1603.2-224.1,1600.6-224.6,1598"/>
	<path style="clip-path:url(#SVGID_00000048503424825588036230000012650663149867916975_);fill:#AB6F65;" d="M3189.6-58.8
		c0,15.9,0.2,32.3,0,48.8c-0.5,46.6-1.2,93.2-1.9,139.7c-0.5,32-14.7,56.6-31.7,79.7c-76.4,103.6-153.2,206.8-228.8,311.2
		c-134.4,185.5-268.7,371.2-402,557.8c-155.9,218.4-349.4,372.9-576.6,469c-61,25.8-124.6,43.3-187.6,61.9
		c-23.5,6.9-48.6,7.6-73.1,8.3c-70.8,2-141.6,3.3-212.4,3.4c-24.4,0-48.9-4.1-73.3-6.7c-3.4-0.4-6.6-2.6-15.3-6.1
		c28.9-8.2,52.7-14.5,76.3-21.8c205.3-63.2,406.6-140.8,600.1-243.4c124.5-66,228.2-167.9,317.8-287.6
		c199.2-266.2,388.2-541.6,544.9-845.9c40.5-78.7,87.3-152.9,132-228.5C3086.6-67.2,3133.4-81.6,3189.6-58.8"/>
	<path style="clip-path:url(#SVGID_00000048503424825588036230000012650663149867916975_);fill:#AB6F65;" d="M2851-58.3
		c-2,4.3-3.2,7.9-5.2,10.8c-145.3,224.4-290.6,449-453.1,656.8c-105,134.2-224.4,247.6-366.1,325.4
		c-50.5,27.7-101.8,53.9-157.8,61.8c-23.2,3.3-47.1,4.8-70.3,2.1c-38.5-4.3-61-30.1-63.3-75.4c-3-60.3-0.9-120.9-2.8-181.3
		c-2.1-66.3-2.6-133.2-10.3-198.8c-19.1-162.5-71.5-310.5-146.5-448.5C1530,11.1,1466.6-37.2,1384.5-54c-8.9-1.8-17.5-5.6-26.1-13.6
		c3.1-1,6.2-3,9.3-3c49.5-0.7,99.1,0,148.5-2c45.9-1.9,77.6,21.9,98.9,67.9c45.2,97.4,91,194.5,135.6,292.3
		c46.6,102.2,91.6,205.5,138.4,307.6c23.6,51.6,56.5,92.2,108.3,103.4c34.2,7.4,67.5-0.3,100.3-12.7
		c122.6-46.5,225.5-130,317.9-233.5c122.2-136.9,226-292.2,328.9-448.6c11.2-17.1,22.4-34.5,35-50.2
		C2798.9-70.4,2822.9-74.1,2851-58.3"/>
	<path style="clip-path:url(#SVGID_00000048503424825588036230000012650663149867916975_);fill:#AB6F65;" d="M-628.4,1623.8
		c-10.3-8.5-16.7-13.8-24.4-20.1c4.8-11.4,9-21.7,13.4-31.9c35.2-80.4,71.5-160.2,105.3-241.4c37.7-90.5,100.1-143.4,181.2-166.2
		c113.7-31.9,227.8-62.1,342.3-90.2c198.4-48.6,390.1-121.8,576.7-213.9c77.6-38.3,127.9-105,143.6-203.5
		c9.2-57.7,0.1-109.3-44.6-145.6c-95.9-78-191.2-156.8-287.3-234.6C247.7,170.9,117,66.3-13.3-39.2c-9.2-7.5-16.4-18.5-24.5-27.9
		c0.7-1.9,1.5-3.8,2.2-5.7c7.7,0,15.5-0.2,23.2,0c31.1,1,62.3,0.4,93.2,4.2c12,1.5,25.8,10.2,34.3,20.7
		C225.3,88.2,355.7,192.4,494,284.2c54.7,36.3,111.2,68.9,164.6,107.5c32.3,23.3,62.5,52.1,89.7,83.2c60.6,69.1,70,160.6,27.4,246.4
		c-42.7,86.2-107.4,143.4-182.3,186c-87.7,49.9-182.1,76.1-275.8,104.2c-197.8,59.5-395.9,117.8-594.3,174.8
		c-131.5,37.8-222.9,129.8-278,273.6c-12.2,31.9-21.8,65.2-35.3,96.2C-600.1,1579.6-614.9,1600.5-628.4,1623.8"/>
	<path style="clip-path:url(#SVGID_00000048503424825588036230000012650663149867916975_);fill:#AB6F65;" d="M2695.1-70.1
		c5,5.8,8.2,9.5,12.2,14.2c-29.9,40.5-56.9,79-85.6,115.6C2526.7,180.8,2426.7,295.3,2309,386c-50.3,38.8-105.1,64.4-166.7,66.8
		c-70.2,2.7-129.8-27-179.7-82.3c-26.2-29.1-51-61.6-70.8-96.9C1832.1,167,1775.1,58.3,1717.1-49.6c-1.7-3.2-2.6-6.9-3.9-10.2
		c21.6-15.1,41-7.6,55.8,20.9c27.3,52.6,54.2,105.4,81.9,157.7c31.5,59.4,62.3,119.4,106.4,167.6c40,43.7,81.7,84.8,136.4,100.5
		c70.9,20.3,136.4-1.6,199.9-37.2c73.1-40.9,134.2-101.2,190.4-168.3c61.5-73.6,121.2-149.4,181.9-223.8
		C2673.9-52.1,2683.8-59.5,2695.1-70.1"/>
</g>
</svg>
