<?xml version="1.0" encoding="utf-8"?>
<!-- Generator: Adobe Illustrator 27.5.0, SVG Export Plug-In . SVG Version: 6.00 Build 0)  -->
<svg version="1.1" id="Layer_1" xmlns="http://www.w3.org/2000/svg" xmlns:xlink="http://www.w3.org/1999/xlink" x="0px" y="0px"
	 viewBox="0 0 150 150" enable-background="new 0 0 150 150" xml:space="preserve">
<path fill="#FFFFFF" d="M84.1,139.3H9.5c-0.7,0-1.4-0.6-1.4-1.4V69.8c0-0.7,0.6-1.4,1.4-1.4h74.6c0.7,0,1.4,0.6,1.4,1.4V138
	C85.5,138.7,84.9,139.3,84.1,139.3z"/>
<g>
	<g>
		<g>
			<defs>
				<rect id="SVGID_1_" x="23.2" y="80.1" width="39.8" height="48"/>
			</defs>
			<clipPath id="SVGID_00000080196367554028595940000007054039978025237403_">
				<use xlink:href="#SVGID_1_"  overflow="visible"/>
			</clipPath>
			<path clip-path="url(#SVGID_00000080196367554028595940000007054039978025237403_)" fill="#002554" d="M33.8,125.3h-3.5v-17.4
				c0,0,1.3,1,2,1.8c1.1,1.2,1.4,1.9,1.4,1.9V125.3z"/>
		</g>
		<g>
			<defs>
				<rect id="SVGID_00000165220329750124809960000011451039643524589241_" x="23.2" y="80.1" width="39.8" height="48"/>
			</defs>
			<clipPath id="SVGID_00000148632209313649412330000015414764602751119269_">
				<use xlink:href="#SVGID_00000165220329750124809960000011451039643524589241_"  overflow="visible"/>
			</clipPath>
			<path clip-path="url(#SVGID_00000148632209313649412330000015414764602751119269_)" fill="#002554" d="M69.1,129.8
				c-3.6,0-15.5-1.6-27.1-21.3c-3.5-6-7.1-10.4-11-13.4l-0.7-0.5l0-5.9v-6.9l14.1,0.2c8.3,0,15.1,6.8,15.1,15.1
				c0,7-4.8,12.9-11.3,14.7c3.5,4.9,8.1,9.9,13.8,12.6c3.6,1.7,7,2,8.1,1.9v3.3C70.1,129.8,69.7,129.8,69.1,129.8 M33.9,93
				c4,3.2,7.6,7.8,11.2,13.8c0.4,0.6,0.8,1.3,1.2,2c5.7-0.8,9.9-5.7,9.9-11.6c0-6.4-5.2-11.7-11.7-11.7h0l-10.6-0.2v3.4L33.9,93z"/>
		</g>
	</g>
</g>
</svg>
