<?xml version="1.0" encoding="utf-8"?>
<!-- Generator: Adobe Illustrator 27.5.0, SVG Export Plug-In . SVG Version: 6.00 Build 0)  -->
<svg version="1.1" id="Layer_1" xmlns="http://www.w3.org/2000/svg" xmlns:xlink="http://www.w3.org/1999/xlink" x="0px" y="0px"
	 viewBox="0 0 301.2 63.2" style="enable-background:new 0 0 301.2 63.2;" xml:space="preserve">
<style type="text/css">
	.st0{fill:#002554;}
	.st1{fill:#A25F53;}
</style>
<path class="st0" d="M12,1.8c2.5,0,4.5,0.6,5.9,1.9C19.3,5,20,6.9,20,9.5c0,2-0.4,3.7-1.2,5c-0.8,1.3-2.1,2.1-3.8,2.5V17
	c1.5,0.2,2.6,0.7,3.3,1.5c0.7,0.8,1.1,2,1.3,3.7c0.1,0.6,0.1,1.2,0.1,1.8c0,0.7,0.1,1.4,0.1,2.2c0.1,1.6,0.1,2.8,0.3,3.7
	c0.2,0.8,0.5,1.4,1.1,1.7v0.3h-6.6c-0.3-0.4-0.5-0.9-0.6-1.5c-0.1-0.5-0.1-1.1-0.2-1.7l-0.2-5.8c-0.1-1.2-0.4-2.1-0.9-2.8
	c-0.5-0.7-1.4-1-2.7-1H6.9v12.7H0.8V1.8H12z M9.4,14.9c1.5,0,2.6-0.3,3.4-1c0.8-0.7,1.2-1.8,1.2-3.5c0-2.8-1.4-4.2-4.2-4.2H6.9v8.7
	H9.4z"/>
<rect x="34.7" y="1.8" class="st0" width="6.1" height="30.1"/>
<polygon class="st0" points="64.1,24 64.2,24 68.7,1.8 75,1.8 68.1,31.9 60.3,31.9 53.4,1.8 59.9,1.8 "/>
<polygon class="st0" points="104.1,6.7 93.4,6.7 93.4,13.8 103.5,13.8 103.5,18.8 93.4,18.8 93.4,26.9 104.6,26.9 104.6,31.9 
	87.3,31.9 87.3,1.8 104.1,1.8 "/>
<path class="st0" d="M128.9,1.8c2.5,0,4.5,0.6,5.9,1.9c1.4,1.3,2.1,3.2,2.1,5.8c0,2-0.4,3.7-1.2,5c-0.8,1.3-2.1,2.1-3.8,2.5V17
	c1.5,0.2,2.6,0.7,3.3,1.5c0.7,0.8,1.1,2,1.3,3.7c0.1,0.6,0.1,1.2,0.1,1.8c0,0.7,0.1,1.4,0.1,2.2c0.1,1.6,0.1,2.8,0.3,3.7
	c0.2,0.8,0.5,1.4,1.1,1.7v0.3h-6.6c-0.3-0.4-0.5-0.9-0.6-1.5c-0.1-0.5-0.1-1.1-0.2-1.7l-0.2-5.8c-0.1-1.2-0.4-2.1-0.9-2.8
	c-0.5-0.7-1.4-1-2.7-1h-3.2v12.7h-6.1V1.8H128.9z M126.3,14.9c1.5,0,2.6-0.3,3.4-1c0.8-0.7,1.2-1.8,1.2-3.5c0-2.8-1.4-4.2-4.2-4.2
	h-2.9v8.7H126.3z"/>
<path class="st1" d="M156.1,23.3c0,0.7,0.1,1.3,0.2,1.9c0.1,0.6,0.3,1.1,0.6,1.5c0.3,0.4,0.7,0.7,1.2,0.9c0.5,0.2,1.2,0.3,2,0.3
	c0.9,0,1.8-0.3,2.5-0.9c0.7-0.6,1.1-1.5,1.1-2.8c0-0.7-0.1-1.3-0.3-1.7c-0.2-0.5-0.5-0.9-0.9-1.3c-0.4-0.4-1-0.8-1.7-1.1
	c-0.7-0.3-1.5-0.7-2.6-1c-1.3-0.4-2.5-0.9-3.5-1.5c-1-0.5-1.8-1.2-2.5-1.9c-0.7-0.7-1.1-1.5-1.5-2.5c-0.3-0.9-0.5-2-0.5-3.3
	c0-3,0.8-5.2,2.5-6.7s3.9-2.2,6.8-2.2c1.3,0,2.6,0.1,3.7,0.4c1.1,0.3,2.1,0.8,2.9,1.4c0.8,0.7,1.5,1.5,1.9,2.5
	c0.5,1,0.7,2.3,0.7,3.7v0.8h-5.8c0-1.4-0.3-2.5-0.8-3.3C162,6,161.2,5.6,160,5.6c-0.7,0-1.2,0.1-1.7,0.3s-0.8,0.5-1.1,0.8
	c-0.3,0.3-0.4,0.7-0.5,1.1c-0.1,0.4-0.1,0.9-0.1,1.3c0,0.9,0.2,1.7,0.6,2.3c0.4,0.6,1.2,1.2,2.5,1.7l4.7,2c1.2,0.5,2.1,1,2.8,1.6
	c0.7,0.5,1.3,1.1,1.7,1.8c0.4,0.6,0.7,1.3,0.9,2.1c0.2,0.8,0.3,1.6,0.3,2.5c0,3.2-0.9,5.5-2.8,6.9c-1.8,1.4-4.4,2.2-7.7,2.2
	c-3.4,0-5.9-0.7-7.4-2.2c-1.5-1.5-2.2-3.6-2.2-6.4v-1.2h6.1V23.3z"/>
<path class="st1" d="M195.3,7.1c-0.5-1-1.5-1.5-2.8-1.5c-0.8,0-1.4,0.2-1.9,0.6c-0.5,0.4-0.9,1.1-1.2,2c-0.3,0.9-0.5,2.1-0.6,3.6
	c-0.1,1.5-0.2,3.3-0.2,5.4c0,2.3,0.1,4.1,0.2,5.5c0.2,1.4,0.4,2.5,0.7,3.3c0.3,0.8,0.7,1.3,1.2,1.6c0.5,0.3,1.1,0.4,1.7,0.4
	c0.5,0,1-0.1,1.5-0.3c0.5-0.2,0.9-0.5,1.2-1.1s0.6-1.3,0.8-2.3c0.2-1,0.3-2.3,0.3-3.9h6.1c0,1.6-0.1,3.2-0.4,4.6
	c-0.3,1.5-0.7,2.7-1.4,3.8c-0.7,1.1-1.7,2-2.9,2.6c-1.2,0.6-2.9,0.9-4.9,0.9c-2.3,0-4.1-0.4-5.4-1.1c-1.3-0.7-2.4-1.8-3.1-3.2
	c-0.7-1.4-1.2-3-1.4-4.9c-0.2-1.9-0.3-4-0.3-6.3c0-2.3,0.1-4.4,0.3-6.3c0.2-1.9,0.7-3.6,1.4-5c0.7-1.4,1.7-2.5,3.1-3.2
	c1.3-0.8,3.2-1.2,5.4-1.2c2.2,0,3.9,0.4,5.1,1.1c1.2,0.7,2.2,1.6,2.8,2.7c0.6,1.1,1,2.2,1.2,3.5c0.2,1.3,0.2,2.4,0.2,3.5h-6.1
	C196.1,9.7,195.8,8.1,195.3,7.1"/>
<path class="st1" d="M229.3,1.8l8,30.1H231l-1.4-6.4h-8l-1.4,6.4h-6.3l8-30.1H229.3z M228.5,20.5L225.6,7h-0.1l-2.9,13.5H228.5z"/>
<path class="st1" d="M260.1,1.8c1.5,0,2.8,0.3,3.9,0.8c1.1,0.5,1.9,1.2,2.5,2c0.6,0.8,1.1,1.8,1.4,2.9c0.3,1.1,0.4,2.2,0.4,3.3
	c0,1.5-0.2,2.9-0.7,4c-0.5,1.2-1.1,2.1-1.9,2.8c-0.8,0.7-1.8,1.3-3,1.6s-2.5,0.5-3.9,0.5h-3.2v12h-6.1V1.8H260.1z M258.3,15.4
	c1.2,0,2.2-0.4,2.9-1.1c0.7-0.7,1.1-1.9,1.1-3.4c0-1.5-0.3-2.7-1-3.5c-0.6-0.8-1.7-1.2-3.2-1.2h-2.5v9.1H258.3z"/>
<polygon class="st1" points="298.3,6.7 287.6,6.7 287.6,13.8 297.7,13.8 297.7,18.8 287.6,18.8 287.6,26.9 298.7,26.9 298.7,31.9 
	281.5,31.9 281.5,1.8 298.3,1.8 "/>
<path class="st0" d="M32.9,49.8l2.8,10.6h-2.2L33,58.1h-2.8l-0.5,2.2h-2.2l2.8-10.6H32.9z M32.7,56.4l-1-4.8h0l-1,4.8H32.7z"/>
<polygon class="st0" points="51.1,57 51.1,57 51.1,49.8 53.1,49.8 53.1,60.4 50.6,60.4 48,52.9 48,52.9 48,60.4 46,60.4 46,49.8 
	48.5,49.8 "/>
<path class="st0" d="M62.2,49.8L65,60.4h-2.2l-0.5-2.2h-2.8L59,60.4h-2.2l2.8-10.6H62.2z M61.9,56.4l-1-4.8h0l-1,4.8H61.9z"/>
<polygon class="st0" points="74.1,51.5 71.8,51.5 71.8,60.4 69.7,60.4 69.7,51.5 67.4,51.5 67.4,49.8 74.1,49.8 "/>
<path class="st0" d="M80,57.2c0,0.3,0,0.5,0.1,0.7c0,0.2,0.1,0.4,0.2,0.6c0.1,0.2,0.2,0.3,0.4,0.4C80.8,59,81,59,81.3,59
	c0.3,0,0.5,0,0.6-0.1c0.2-0.1,0.3-0.2,0.4-0.4c0.1-0.2,0.2-0.4,0.2-0.6c0-0.2,0.1-0.5,0.1-0.7v-7.4h2.1v7.4c0,0.7-0.1,1.2-0.3,1.7
	c-0.2,0.4-0.4,0.8-0.8,1c-0.3,0.3-0.7,0.4-1.1,0.5c-0.4,0.1-0.8,0.1-1.3,0.1c-0.4,0-0.9,0-1.3-0.1s-0.8-0.2-1.1-0.5
	c-0.3-0.2-0.6-0.6-0.8-1c-0.2-0.4-0.3-1-0.3-1.7v-7.4H80V57.2z"/>
<path class="st0" d="M93,49.8c0.9,0,1.6,0.2,2.1,0.7c0.5,0.5,0.7,1.1,0.7,2.1c0,0.7-0.1,1.3-0.4,1.7c-0.3,0.5-0.7,0.7-1.3,0.9v0
	c0.5,0.1,0.9,0.3,1.2,0.5c0.2,0.3,0.4,0.7,0.5,1.3c0,0.2,0,0.4,0,0.6c0,0.2,0,0.5,0,0.8c0,0.6,0,1,0.1,1.3c0.1,0.3,0.2,0.5,0.4,0.6
	v0.1h-2.3c-0.1-0.1-0.2-0.3-0.2-0.5c0-0.2,0-0.4-0.1-0.6l-0.1-2c0-0.4-0.1-0.7-0.3-1c-0.2-0.2-0.5-0.4-1-0.4h-1.1v4.5H89V49.8H93z
	 M92,54.4c0.5,0,0.9-0.1,1.2-0.4c0.3-0.2,0.4-0.7,0.4-1.2c0-1-0.5-1.5-1.5-1.5h-1v3.1H92z"/>
<path class="st0" d="M105,49.8l2.8,10.6h-2.2l-0.5-2.2h-2.8l-0.5,2.2h-2.2l2.8-10.6H105z M104.7,56.4l-1-4.8h0l-1,4.8H104.7z"/>
<polygon class="st0" points="111.5,49.8 113.6,49.8 113.6,58.6 117.4,58.6 117.4,60.4 111.5,60.4 "/>
<polygon class="st0" points="128.8,49.8 129.9,57.6 130,57.6 131.2,49.8 133.3,49.8 134.5,57.6 134.5,57.6 135.7,49.8 137.8,49.8 
	135.8,60.4 133.4,60.4 132.3,52.7 132.2,52.7 131,60.4 128.6,60.4 126.7,49.8 "/>
<path class="st0" d="M146.1,49.8l2.8,10.6h-2.2l-0.5-2.2h-2.8l-0.5,2.2h-2.2l2.8-10.6H146.1z M145.8,56.4l-1-4.8h0l-1,4.8H145.8z"/>
<path class="st0" d="M154.3,57.4c0,0.2,0,0.5,0.1,0.7c0,0.2,0.1,0.4,0.2,0.5c0.1,0.1,0.3,0.2,0.4,0.3c0.2,0.1,0.4,0.1,0.7,0.1
	c0.3,0,0.6-0.1,0.9-0.3c0.3-0.2,0.4-0.5,0.4-1c0-0.2,0-0.4-0.1-0.6c-0.1-0.2-0.2-0.3-0.3-0.5c-0.1-0.1-0.3-0.3-0.6-0.4
	s-0.5-0.2-0.9-0.3c-0.5-0.2-0.9-0.3-1.2-0.5c-0.3-0.2-0.6-0.4-0.9-0.7s-0.4-0.5-0.5-0.9c-0.1-0.3-0.2-0.7-0.2-1.2
	c0-1.1,0.3-1.8,0.9-2.3s1.4-0.8,2.4-0.8c0.5,0,0.9,0.1,1.3,0.2c0.4,0.1,0.7,0.3,1,0.5c0.3,0.2,0.5,0.5,0.7,0.9
	c0.2,0.4,0.2,0.8,0.2,1.3v0.3h-2.1c0-0.5-0.1-0.9-0.3-1.2c-0.2-0.3-0.5-0.4-0.9-0.4c-0.2,0-0.4,0-0.6,0.1c-0.2,0.1-0.3,0.2-0.4,0.3
	c-0.1,0.1-0.2,0.2-0.2,0.4c0,0.1-0.1,0.3-0.1,0.5c0,0.3,0.1,0.6,0.2,0.8c0.1,0.2,0.4,0.4,0.9,0.6l1.6,0.7c0.4,0.2,0.7,0.4,1,0.6
	c0.3,0.2,0.5,0.4,0.6,0.6c0.2,0.2,0.3,0.5,0.3,0.7c0.1,0.3,0.1,0.6,0.1,0.9c0,1.1-0.3,1.9-1,2.4c-0.6,0.5-1.6,0.8-2.7,0.8
	c-1.2,0-2.1-0.3-2.6-0.8c-0.5-0.5-0.8-1.3-0.8-2.3v-0.4h2.1V57.4z"/>
<path class="st0" d="M168,49.8l2.8,10.6h-2.2l-0.5-2.2h-2.8l-0.5,2.2h-2.2l2.8-10.6H168z M167.7,56.4l-1-4.8h0l-1,4.8H167.7z"/>
<path class="st0" d="M179.1,52.3c0-0.2-0.1-0.4-0.2-0.6c-0.1-0.2-0.2-0.3-0.4-0.4c-0.2-0.1-0.3-0.2-0.6-0.2c-0.5,0-0.9,0.3-1.1,0.9
	c-0.2,0.6-0.3,1.5-0.3,2.9c0,0.6,0,1.2,0.1,1.7c0,0.5,0.1,1,0.2,1.3c0.1,0.4,0.3,0.6,0.4,0.8c0.2,0.2,0.4,0.3,0.8,0.3
	c0.1,0,0.3,0,0.4-0.1c0.2-0.1,0.3-0.2,0.4-0.3c0.1-0.1,0.2-0.3,0.3-0.5c0.1-0.2,0.1-0.5,0.1-0.8v-1.1h-1.4v-1.6h3.5v5.7h-1.6v-1h0
	c-0.3,0.4-0.6,0.7-0.9,0.9c-0.4,0.2-0.8,0.3-1.3,0.3c-0.7,0-1.2-0.1-1.6-0.3c-0.4-0.2-0.7-0.6-1-1.1c-0.2-0.5-0.4-1.1-0.5-1.8
	c-0.1-0.7-0.1-1.5-0.1-2.4c0-0.9,0.1-1.7,0.2-2.3c0.1-0.7,0.3-1.2,0.6-1.7c0.3-0.5,0.6-0.8,1.1-1c0.5-0.2,1-0.3,1.7-0.3
	c1.2,0,2,0.3,2.5,0.9c0.5,0.6,0.8,1.4,0.8,2.5h-2.1C179.2,52.7,179.2,52.5,179.1,52.3"/>
<path class="st0" d="M190.5,49.8l2.8,10.6H191l-0.5-2.2h-2.8l-0.5,2.2H185l2.8-10.6H190.5z M190.2,56.4l-1-4.8h0l-1,4.8H190.2z"/>
<polygon class="st0" points="209.5,51.5 205.7,51.5 205.7,54 209.2,54 209.2,55.8 205.7,55.8 205.7,58.6 209.6,58.6 209.6,60.4 
	203.5,60.4 203.5,49.8 209.5,49.8 "/>
<polygon class="st0" points="218.7,57 218.7,57 218.7,49.8 220.7,49.8 220.7,60.4 218.3,60.4 215.6,52.9 215.6,52.9 215.6,60.4 
	213.6,60.4 213.6,49.8 216.1,49.8 "/>
<path class="st0" d="M229.4,51.7c-0.2-0.4-0.5-0.5-1-0.5c-0.3,0-0.5,0.1-0.7,0.2s-0.3,0.4-0.4,0.7c-0.1,0.3-0.2,0.7-0.2,1.3
	c0,0.5-0.1,1.2-0.1,1.9c0,0.8,0,1.5,0.1,1.9c0.1,0.5,0.1,0.9,0.3,1.2c0.1,0.3,0.3,0.5,0.4,0.6c0.2,0.1,0.4,0.1,0.6,0.1
	c0.2,0,0.4,0,0.5-0.1c0.2-0.1,0.3-0.2,0.4-0.4c0.1-0.2,0.2-0.5,0.3-0.8c0.1-0.4,0.1-0.8,0.1-1.4h2.1c0,0.6,0,1.1-0.1,1.6
	c-0.1,0.5-0.3,1-0.5,1.4c-0.2,0.4-0.6,0.7-1,0.9c-0.4,0.2-1,0.3-1.7,0.3c-0.8,0-1.4-0.1-1.9-0.4c-0.5-0.3-0.8-0.6-1.1-1.1
	c-0.3-0.5-0.4-1.1-0.5-1.7c-0.1-0.7-0.1-1.4-0.1-2.2c0-0.8,0-1.5,0.1-2.2c0.1-0.7,0.2-1.3,0.5-1.7c0.3-0.5,0.6-0.9,1.1-1.1
	c0.5-0.3,1.1-0.4,1.9-0.4c0.8,0,1.4,0.1,1.8,0.4c0.4,0.2,0.8,0.6,1,0.9c0.2,0.4,0.4,0.8,0.4,1.2c0.1,0.4,0.1,0.9,0.1,1.2h-2.1
	C229.7,52.6,229.6,52,229.4,51.7"/>
<polygon class="st0" points="236.1,49.8 238.2,49.8 238.2,58.6 242,58.6 242,60.4 236.1,60.4 "/>
<path class="st0" d="M250.7,49.8l2.8,10.6h-2.2l-0.5-2.2h-2.8l-0.5,2.2h-2.2l2.8-10.6H250.7z M250.4,56.4l-1-4.8h0l-1,4.8H250.4z"/>
<polygon class="st0" points="260,57.6 260,57.6 261.6,49.8 263.8,49.8 261.4,60.4 258.6,60.4 256.2,49.8 258.5,49.8 "/>
<polygon class="st0" points="273.5,51.5 269.7,51.5 269.7,54 273.3,54 273.3,55.8 269.7,55.8 269.7,58.6 273.7,58.6 273.7,60.4 
	267.6,60.4 267.6,49.8 273.5,49.8 "/>
</svg>
