<?xml version="1.0" standalone="no"?>
<!DOCTYPE svg PUBLIC "-//W3C//DTD SVG 20010904//EN"
 "http://www.w3.org/TR/2001/REC-SVG-20010904/DTD/svg10.dtd">
<svg version="1.0" xmlns="http://www.w3.org/2000/svg"
 width="400.000000pt" height="400.000000pt" viewBox="0 0 400.000000 400.000000"
 preserveAspectRatio="xMidYMid meet">
<metadata>
Created by potrace 1.14, written by Peter Selinger 2001-2017
</metadata>
<g transform="translate(0.000000,400.000000) scale(0.100000,-0.100000)"
fill="#000000" stroke="none">
<path d="M393 3962 l-22 -3 0 -524 0 -523 81 -62 c87 -68 290 -265 384 -374
32 -37 98 -121 146 -185 48 -64 91 -120 96 -126 24 -29 171 -260 252 -395 175
-291 337 -522 521 -745 113 -136 371 -392 499 -495 282 -226 609 -397 875
-457 159 -36 388 -53 401 -31 5 8 9 218 5 259 -1 3 -38 9 -83 12 -267 20 -530
112 -788 275 -58 37 -224 158 -250 183 -9 8 -53 48 -100 89 -46 41 -100 91
-119 111 -47 47 -161 170 -186 200 -11 13 -41 49 -66 79 -54 64 -189 243 -189
250 0 3 33 16 73 28 306 96 590 350 732 657 102 222 138 501 95 740 -59 323
-250 617 -524 806 -131 90 -336 174 -476 194 -19 3 -46 8 -60 11 -34 8 -201
12 -740 19 -256 4 -481 7 -500 8 -19 1 -45 1 -57 -1z m797 -297 c228 -3 431
-8 450 -11 62 -9 74 -12 140 -29 145 -37 303 -129 418 -243 124 -123 233 -315
257 -454 3 -17 8 -35 11 -39 14 -23 21 -227 10 -299 -12 -83 -17 -105 -38
-170 -81 -251 -253 -454 -485 -569 -71 -35 -171 -70 -248 -85 -35 -7 -16 -33
-193 257 -253 412 -485 699 -776 962 l-78 71 0 289 c0 160 1 299 1 310 1 18 7
20 58 18 32 0 245 -4 473 -8z"/>
<path d="M371 1121 c0 -547 3 -710 12 -713 7 -2 70 -4 142 -4 l130 1 1 563 2
562 -31 48 c-34 51 -173 195 -224 230 l-31 22 -1 -709z"/>
</g>
</svg>
