<?xml version="1.0" encoding="utf-8"?>
<!-- Generator: Adobe Illustrator 27.5.0, SVG Export Plug-In . SVG Version: 6.00 Build 0)  -->
<svg version="1.1" id="Layer_1" xmlns="http://www.w3.org/2000/svg" xmlns:xlink="http://www.w3.org/1999/xlink" x="0px" y="0px"
	 viewBox="0 0 1792 247.5" style="enable-background:new 0 0 1792 247.5;" xml:space="preserve">
<style type="text/css">
	.st0{clip-path:url(#SVGID_00000140011576498776990830000011587405194287869316_);fill:#AB6F65;}
</style>
<g>
	<defs>
		<rect id="SVGID_1_" x="-127.7" y="-0.4" width="1920" height="248.4"/>
	</defs>
	<clipPath id="SVGID_00000077288548247692989190000007333890385663949990_">
		<use xlink:href="#SVGID_1_"  style="overflow:visible;"/>
	</clipPath>
	<path style="clip-path:url(#SVGID_00000077288548247692989190000007333890385663949990_);fill:#AB6F65;" d="M-640.1,911.8
		c-18.8-31.8-10.7-132.5-10-154.3c2.3-70.2,13.4-141.7,46.7-201.4c35.1-62.9,91.3-106.1,150.5-134.5
		c59.3-28.4,122.4-43.5,184.4-61.9C-176.9,332.7-87,298.4,0.6,257.1c33.8-15.9,70.9-37.1,82.7-77.7c13.5-46.3-12.2-95.3-40.5-131.1
		C-4.6-11.8-62.2-59.2-120.5-104c-86.3-66.4-175-128.4-263.6-190.4c-43-30.1-86.2-60.2-132.2-83.3c-24.7-12.4-53.8-22.5-77.4-7.5
		c-42.2,26.8-37.7,114.4-49.2,161.9c1.8-7.5-11.8-58.2-12.1-70.3c-1.1-46.1,6.7-90.9,7.3-136.7c0.5-36,43.3-33.5,63.5-33.4
		c106.9,0.7,212.8-0.1,319.7-0.3c56.8-0.1,115.3,8.3,164.9,43.1c54.1,37.9,97.8,94,150.2,134.9C155-204.4,261.6-127.2,366.1-46
		c29.5,22.9,57.1,50.5,81.6,80.4c38.2,46.8,42.1,105.7,15.3,162.8c-25.9,55.2-68.4,88.5-114.2,116.6
		c-59.3,36.5-123.9,54.7-188.6,71.7c-167,44.1-334.3,86.6-501.2,131.4C-456,547.8-530.1,631.6-565.1,764
		c-10.7,40.4-17,81.4-29.1,121.3c-4.9,16-14,32.3-28.2,35.7C-630,922.8-635.8,919.1-640.1,911.8"/>
	<path style="clip-path:url(#SVGID_00000077288548247692989190000007333890385663949990_);fill:#AB6F65;" d="M436.6-456.7h499.3
		c0.2,1.8,0.3,3.7,0.5,5.5C857-438,777.6-424.8,698.1-411.6c0,0.8,0.1,1.5,0.1,2.3c2.1,0.2,4.2,0.5,6.2,0.5
		c75.6-1,151.2-3.4,226.8-2.7c42.4,0.4,85.3,1.6,127,9.8c72.8,14.2,125.4,64.7,159.5,140.9c47.7,106.4,73.4,219.4,69.1,340.3
		c-3.9,106.6-34.2,203.3-84.4,291.3c-38.7,67.7-79.3,133.9-118.6,201.2c-9.8,16.8-19.6,34.2-26.2,52.9
		c-10.1,28.4,1.2,46.9,27.4,49.7c64.5,6.7,128.3,1.7,191.7-14.4c228.5-58.1,426.2-182.5,585.6-384.4
		c69.3-87.7,133.5-181.3,196.3-275.6c88.6-133.2,173.7-269.6,260.4-404.6c2.6-4,5.2-7.9,7.9-11.9c29.2-43.3,56.1-53.3,101.3-37.5
		c1,0.4,1.9,1.5,3.8,3.1c-2.1,3.8-3.9,7.6-6.1,11.1c-133.6,211.6-266.4,423.8-401.1,634.4c-83,129.8-176.1,248.6-286.8,347.2
		c-82.2,73.1-174,123.9-269.7,166.9c-135,60.8-272.9,109.4-415.9,135.2C990,855.2,927,862.5,864.1,866.7
		c-55.6,3.7-111.6,2.7-167.3-0.2c-30.3-1.5-60.5-9.8-90.3-17.7c-17.7-4.7-32.7-18.9-35.2-41c-2.4-21.1,10.8-35.7,25-45.9
		c41.3-29.7,83.5-57.9,124.9-87.5c76.2-54.4,153.9-106.2,227.6-164.8c86.5-68.8,157-157.2,204.8-267.8
		c64.9-150.3,66.2-302.6,2.8-453.4c-33.7-80.2-92.1-122.7-168.5-127.5c-86.2-5.5-172.6-9.2-258.8-14
		c-96.6-5.4-188.6-30.5-272.8-88.8C450.8-445.9,445.4-450.1,436.6-456.7"/>
	<path style="clip-path:url(#SVGID_00000077288548247692989190000007333890385663949990_);fill:#AB6F65;" d="M2567.5-44.9
		c0.5,7.4,1.2,12.6,1.2,17.9c0.1,203.8,0.1,407.6-0.1,611.4c0,32.3,0,64.8-2.7,96.9c-3.4,41.2-23.8,74.6-41.9,108.5
		c-19.2,35.9-39,71.3-58.1,107.2c-14.8,27.8-34.8,38.8-62.9,34.5c-19.1-2.9-38.7-0.9-58.1-1.1c-4.5,0-9,0-15.8,0
		c3.3-7.9,5.4-13,7.7-18.1c52.5-118.4,105.8-236.3,157-355.4c11.3-26.2,15-56.9,23.2-89.6c-7.6,2.2-11.5,2.9-15.2,4.4
		c-47.9,19.2-86,55.5-120.9,97.1c-69.2,82.4-137.3,166.1-207.7,247c-29.8,34.3-63.9,63.5-96.6,94.3c-17.5,16.6-39.2,19.2-60.6,19.1
		c-95-0.5-190-1.7-284.9-2.5c-21.5-0.2-43,0-64.5,0c-0.3-2.3-0.7-4.7-1-7c4.5-2.5,8.9-5.3,13.5-7.6c66.7-33.4,133.6-66.2,193-116.4
		c73.3-61.9,135.6-137.3,194.1-217.4c102.6-140.4,204.9-281,306.8-422.1c55-76.1,123.5-134,188.1-197.2
		C2562.4-42.1,2563.9-42.7,2567.5-44.9"/>
	<path style="clip-path:url(#SVGID_00000077288548247692989190000007333890385663949990_);fill:#AB6F65;" d="M-234.2,910.7
		c38.4-24.4,75.7-51.6,115.3-72.8c117.1-62.6,234-126.2,353.2-183c85.7-40.8,174.9-71.1,262.5-106.5c90.6-36.6,180.8-74.7,265-129
		C869.3,350.2,947,250.6,979.9,108.9c21.9-94.2,7.1-178.8-54.4-248.5c-30.9-35-69.8-50.2-110.4-59.9c-83.1-20-166.3-39.2-249.5-58.3
		C463-281.4,368.3-329.2,277-387.7c-28.5-18.3-57.7-35.4-87.7-53.7c1.3-5.2,2.5-10.1,4.1-16.4c63.5-8.5,126.9-12.4,182,32.5
		c93.8,76.3,198.7,112.8,310.2,128.8c79.9,11.5,159.8,22.5,239.5,35.8c34,5.7,67.9,14.7,96.8,39.7c43.7,37.8,63.8,91.6,74.3,151.5
		c25.1,142-11.5,264.2-87.7,373.5c-79.4,113.9-180.8,192.4-295.2,247.8c-101.7,49.3-204.9,94.4-308,139.8
		c-102.9,45.4-200.3,102.7-288.6,180.3c-12.1,10.6-25.4,19.3-37.8,29.5c-21.4,17.7-44.7,25-71.1,24.1c-62.7-2.2-125.4-2.2-188.2-3.6
		c-17.7-0.4-35.3-3-52.9-4.6C-233.4,915-233.8,912.9-234.2,910.7"/>
	<path style="clip-path:url(#SVGID_00000077288548247692989190000007333890385663949990_);fill:#AB6F65;" d="M2569.3-449.7
		c0,13,0.1,26.6,0,40.1c-0.4,38.2-1,76.5-1.5,114.7c-0.4,26.3-12,46.5-26,65.4C2479.1-144.4,2416-59.7,2353.9,26
		c-110.4,152.3-220.7,304.8-330.1,458.1c-128,179.4-286.9,306.2-473.5,385.1c-50.1,21.2-102.3,35.6-154,50.8
		c-19.3,5.7-39.9,6.3-60,6.8c-58.1,1.7-116.3,2.7-174.4,2.8c-20.1,0-40.1-3.4-60.2-5.5c-2.8-0.3-5.5-2.1-12.6-5
		c23.8-6.8,43.3-11.9,62.6-17.9c168.6-51.9,333.9-115.6,492.7-199.9c102.2-54.2,187.4-137.8,260.9-236.2
		c163.5-218.6,318.7-444.7,447.4-694.6c33.3-64.6,71.7-125.6,108.4-187.6C2484.7-456.7,2523.1-468.5,2569.3-449.7"/>
	<path style="clip-path:url(#SVGID_00000077288548247692989190000007333890385663949990_);fill:#AB6F65;" d="M2291.2-449.3
		c-1.7,3.5-2.7,6.5-4.2,8.9c-119.3,184.2-238.6,368.7-372.1,539.3c-86.2,110.2-184.3,203.3-300.6,267.2
		c-41.5,22.8-83.6,44.2-129.6,50.7c-19.1,2.7-38.7,3.9-57.8,1.8c-31.6-3.6-50.1-24.7-52-61.9c-2.5-49.5-0.8-99.3-2.3-148.9
		c-1.7-54.5-2.1-109.4-8.5-163.2c-15.7-133.4-58.7-255-120.3-368.3c-37.3-68.6-89.3-108.2-156.7-122c-7.3-1.5-14.4-4.6-21.4-11.1
		c2.5-0.9,5.1-2.4,7.6-2.5c40.7-0.6,81.3,0,122-1.7c37.7-1.6,63.7,17.9,81.2,55.8c37.1,80,74.7,159.7,111.4,240
		c38.3,83.9,75.2,168.7,113.6,252.6c19.4,42.4,46.4,75.7,88.9,84.9c28.1,6.1,55.4-0.2,82.3-10.4c100.7-38.2,185.1-106.7,261.1-191.7
		c100.4-112.4,185.6-240,270.1-368.4c9.2-14,18.4-28.3,28.7-41.2C2248.4-459.3,2268.2-462.3,2291.2-449.3"/>
	<path style="clip-path:url(#SVGID_00000077288548247692989190000007333890385663949990_);fill:#AB6F65;" d="M-565.9,931.9
		c-8.5-7-13.7-11.3-20-16.5c3.9-9.3,7.4-17.8,11-26.2c28.9-66,58.7-131.6,86.5-198.2c31-74.3,82.2-117.8,148.8-136.4
		c93.4-26.2,187.1-51,281.1-74c162.9-39.9,320.3-100,473.6-175.6c63.7-31.4,105-86.2,117.9-167.1c7.5-47.4,0.1-89.8-36.6-119.5
		c-78.7-64-157-128.8-235.9-192.6C153.6-261.1,46.2-347-60.8-433.6c-7.6-6.1-13.5-15.2-20.2-22.9c0.6-1.6,1.2-3.1,1.8-4.7
		c6.3,0,12.7-0.2,19,0c25.5,0.8,51.2,0.3,76.5,3.4c9.9,1.2,21.2,8.4,28.2,17c90.6,111.8,197.7,197.4,311.2,272.7
		c44.9,29.8,91.3,56.6,135.1,88.3c26.5,19.1,51.3,42.8,73.7,68.3c49.8,56.7,57.5,131.9,22.5,202.3c-35,70.7-88.2,117.7-149.7,152.8
		c-72,41-149.6,62.5-226.4,85.6C48.7,478-114,525.9-276.9,572.7c-108,31-183,106.6-228.3,224.6c-10,26.2-17.9,53.6-29,79
		C-542.6,895.6-554.8,912.8-565.9,931.9"/>
	<path style="clip-path:url(#SVGID_00000077288548247692989190000007333890385663949990_);fill:#AB6F65;" d="M1874-454.7
		c-12.2,15.3-22.2,27.7-32.1,40.4c-11.5,14.8-23.2,29.4-33.9,45c-9.2,13.2-19.1,30-11.7,45.9c8.3,17.9,26.6,20.4,43.3,19.9
		c31.1-1,59.8-12.6,85-33c35.4-28.6,70.2-58.3,103.6-90.1c22.3-21.3,46.7-31.1,75.3-32.5c2.2,4.3,4.6,8.8,7.7,14.7
		c-19.7,22-39,43.5-58.3,65.3c-58.7,66.2-121.6,125.6-193.9,170.6c-125.5,78-235.8,11.8-293-109.2c-10.5-22.1-18.1-46.4-24.7-70.5
		c-7.5-27.6,3.6-47,26.9-50.2c83.5-11.6,167.1-21.8,251.4-18.7C1836.5-456.9,1853.4-455.8,1874-454.7"/>
	<path style="clip-path:url(#SVGID_00000077288548247692989190000007333890385663949990_);fill:#AB6F65;" d="M2163.2-459
		c4.1,4.8,6.7,7.8,10,11.7c-24.6,33.3-46.7,64.9-70.3,94.9C2025-253,1942.8-159,1846.2-84.5c-41.3,31.9-86.3,52.9-136.9,54.8
		c-57.6,2.3-106.6-22.1-147.6-67.6c-21.5-23.9-41.9-50.6-58.1-79.6c-49-87.5-95.8-176.7-143.5-265.3c-1.4-2.6-2.2-5.6-3.2-8.4
		c17.7-12.4,33.7-6.3,45.8,17.2c22.4,43.2,44.5,86.5,67.3,129.5c25.8,48.7,51.1,98.1,87.4,137.6c32.8,35.9,67.1,69.6,112,82.5
		c58.2,16.7,112-1.3,164.1-30.5c60-33.6,110.2-83.1,156.3-138.2c50.5-60.4,99.5-122.7,149.4-183.8
		C2145.8-444.2,2154-450.3,2163.2-459"/>
</g>
</svg>
