<?xml version="1.0" encoding="utf-8"?>
<!-- Generator: Adobe Illustrator 27.5.0, SVG Export Plug-In . SVG Version: 6.00 Build 0)  -->
<svg version="1.1" baseProfile="basic" id="Layer_1"
	 xmlns="http://www.w3.org/2000/svg" xmlns:xlink="http://www.w3.org/1999/xlink" x="0px" y="0px" viewBox="0 0 134.3 135.6"
	 xml:space="preserve">
<path fill="#FFFFFF" stroke="#FFFFFF" stroke-width="5" stroke-miterlimit="10" d="M14.7,6.8c-4.3,0-7.7,3.4-7.7,7.5v106.1
	c0,4.1,3.5,7.5,7.7,7.5h104.9c4.3,0,7.7-3.4,7.7-7.5V14.3c0-4.1-3.5-7.5-7.7-7.5H14.7z M119.6,130.7H14.7c-5.8,0-10.5-4.6-10.5-10.2
	V14.3C4.3,8.7,9,4.1,14.7,4.1h104.9c5.8,0,10.5,4.6,10.5,10.2v106.1C130.1,126.1,125.4,130.7,119.6,130.7"/>
<path fill="#FFFFFF" d="M33.6,45.6c6.5,0,10.5-4.3,10.5-9.7c-0.1-5.5-4-9.7-10.4-9.7s-10.5,4.2-10.5,9.7
	C23.2,41.3,27.2,45.6,33.6,45.6L33.6,45.6z M24.3,109.1h18.6V53.2H24.3V109.1z"/>
<path fill="#FFFFFF" d="M53.2,109.1h18.6V77.9c0-1.7,0.1-3.3,0.6-4.5c1.3-3.3,4.4-6.8,9.5-6.8c6.7,0,9.4,5.1,9.4,12.6v29.9h18.6v-32
	c0-17.2-9.2-25.2-21.4-25.2c-10,0-14.4,5.6-16.9,9.4h0.1v-8.1H53.2C53.5,58.4,53.2,109.1,53.2,109.1"/>
</svg>
