<?xml version="1.0" encoding="utf-8"?>
<!-- Generator: Adobe Illustrator 27.5.0, SVG Export Plug-In . SVG Version: 6.00 Build 0)  -->
<svg version="1.1" id="Layer_1" xmlns="http://www.w3.org/2000/svg" xmlns:xlink="http://www.w3.org/1999/xlink" x="0px" y="0px"
	 viewBox="0 0 346.1 244.3" style="enable-background:new 0 0 346.1 244.3;" xml:space="preserve">
<style type="text/css">
	.st0{fill:#002554;}
	.st1{fill:#A25F53;}
</style>
<path class="st0" d="M15.7,174.6c2.9,0,5.1,0.7,6.7,2.2c1.6,1.5,2.4,3.7,2.4,6.7c0,2.3-0.5,4.2-1.4,5.7c-0.9,1.5-2.4,2.4-4.3,2.8
	v0.1c1.7,0.3,3,0.8,3.8,1.7c0.8,0.9,1.3,2.3,1.5,4.2c0.1,0.6,0.1,1.3,0.1,2.1c0,0.8,0.1,1.6,0.1,2.5c0.1,1.8,0.2,3.2,0.3,4.2
	c0.2,1,0.6,1.6,1.3,2v0.3h-7.5c-0.4-0.5-0.6-1-0.7-1.7c-0.1-0.6-0.2-1.3-0.2-2l-0.2-6.6c-0.1-1.3-0.4-2.4-1-3.2
	c-0.6-0.8-1.6-1.2-3.1-1.2H9.8V209H2.9v-34.4H15.7z M12.7,189.6c1.7,0,3-0.4,3.9-1.2c0.9-0.8,1.3-2.1,1.3-4c0-3.2-1.6-4.8-4.8-4.8
	H9.8v9.9H12.7z"/>
<rect x="41.6" y="174.6" class="st0" width="6.9" height="34.4"/>
<polygon class="st0" points="75.2,200 75.4,200 80.5,174.6 87.6,174.6 79.7,209 70.8,209 62.9,174.6 70.3,174.6 "/>
<polygon class="st0" points="120.9,180.3 108.7,180.3 108.7,188.4 120.2,188.4 120.2,194 108.7,194 108.7,203.3 121.4,203.3 
	121.4,209 101.7,209 101.7,174.6 120.9,174.6 "/>
<path class="st0" d="M149.3,174.6c2.9,0,5.1,0.7,6.7,2.2c1.6,1.5,2.4,3.7,2.4,6.7c0,2.3-0.5,4.2-1.4,5.7c-0.9,1.5-2.4,2.4-4.3,2.8
	v0.1c1.7,0.3,3,0.8,3.8,1.7c0.8,0.9,1.3,2.3,1.5,4.2c0.1,0.6,0.1,1.3,0.1,2.1c0,0.8,0.1,1.6,0.1,2.5c0.1,1.8,0.2,3.2,0.3,4.2
	c0.2,1,0.6,1.6,1.3,2v0.3h-7.5c-0.4-0.5-0.6-1-0.7-1.7c-0.1-0.6-0.2-1.3-0.2-2l-0.2-6.6c-0.1-1.3-0.4-2.4-1-3.2
	c-0.6-0.8-1.6-1.2-3.1-1.2h-3.7V209h-6.9v-34.4H149.3z M146.3,189.6c1.7,0,3-0.4,3.9-1.2c0.9-0.8,1.3-2.1,1.3-4
	c0-3.2-1.6-4.8-4.8-4.8h-3.3v9.9H146.3z"/>
<path class="st1" d="M180.4,199.2c0,0.8,0.1,1.5,0.2,2.2c0.1,0.7,0.4,1.2,0.7,1.7c0.4,0.5,0.8,0.8,1.4,1.1c0.6,0.3,1.3,0.4,2.2,0.4
	c1.1,0,2-0.3,2.9-1c0.8-0.7,1.3-1.8,1.3-3.2c0-0.8-0.1-1.4-0.3-2c-0.2-0.6-0.6-1.1-1-1.5c-0.5-0.4-1.1-0.9-1.9-1.2
	c-0.8-0.4-1.8-0.7-2.9-1.1c-1.5-0.5-2.9-1.1-4-1.7c-1.1-0.6-2.1-1.3-2.8-2.1c-0.8-0.8-1.3-1.8-1.7-2.8c-0.4-1.1-0.5-2.3-0.5-3.7
	c0-3.4,0.9-5.9,2.8-7.6c1.9-1.7,4.5-2.5,7.8-2.5c1.5,0,3,0.2,4.3,0.5c1.3,0.3,2.4,0.9,3.4,1.6c0.9,0.8,1.7,1.7,2.2,2.9
	c0.5,1.2,0.8,2.6,0.8,4.2v1h-6.6c0-1.6-0.3-2.9-0.9-3.8c-0.6-0.9-1.5-1.3-2.9-1.3c-0.8,0-1.4,0.1-1.9,0.3c-0.5,0.2-0.9,0.5-1.2,0.9
	c-0.3,0.4-0.5,0.8-0.6,1.3c-0.1,0.5-0.2,1-0.2,1.5c0,1.1,0.2,2,0.7,2.7c0.4,0.7,1.4,1.4,2.9,2l5.3,2.3c1.3,0.6,2.4,1.2,3.2,1.8
	c0.8,0.6,1.5,1.3,2,2c0.5,0.7,0.8,1.5,1,2.4c0.2,0.9,0.3,1.8,0.3,2.9c0,3.6-1.1,6.3-3.2,7.9c-2.1,1.7-5,2.5-8.8,2.5
	c-3.9,0-6.7-0.8-8.4-2.6c-1.7-1.7-2.5-4.1-2.5-7.3v-1.4h6.9V199.2z"/>
<path class="st1" d="M225.1,180.7c-0.6-1.1-1.7-1.7-3.3-1.7c-0.9,0-1.6,0.2-2.1,0.7c-0.6,0.5-1,1.2-1.3,2.3c-0.3,1-0.5,2.4-0.7,4.1
	c-0.1,1.7-0.2,3.7-0.2,6.2c0,2.6,0.1,4.7,0.3,6.3c0.2,1.6,0.4,2.8,0.8,3.7c0.4,0.9,0.8,1.5,1.4,1.8c0.6,0.3,1.2,0.5,1.9,0.5
	c0.6,0,1.2-0.1,1.7-0.3c0.5-0.2,1-0.6,1.4-1.3c0.4-0.6,0.7-1.5,0.9-2.6c0.2-1.1,0.3-2.6,0.3-4.5h6.9c0,1.9-0.1,3.6-0.4,5.3
	c-0.3,1.7-0.8,3.1-1.6,4.4c-0.8,1.3-1.9,2.2-3.3,2.9c-1.4,0.7-3.3,1.1-5.6,1.1c-2.6,0-4.7-0.4-6.2-1.3c-1.5-0.8-2.7-2-3.5-3.6
	c-0.8-1.6-1.3-3.5-1.6-5.6c-0.2-2.2-0.4-4.6-0.4-7.2c0-2.6,0.1-5,0.4-7.2c0.2-2.2,0.8-4.1,1.6-5.7c0.8-1.6,2-2.8,3.5-3.7
	c1.5-0.9,3.6-1.3,6.2-1.3c2.5,0,4.4,0.4,5.8,1.2c1.4,0.8,2.5,1.8,3.2,3.1c0.7,1.2,1.1,2.6,1.3,4c0.2,1.4,0.3,2.8,0.3,4H226
	C226,183.7,225.7,181.9,225.1,180.7"/>
<path class="st1" d="M264,174.6l9.1,34.4h-7.2l-1.6-7.3h-9.1l-1.6,7.3h-7.2l9.1-34.4H264z M263.1,196l-3.3-15.5h-0.1l-3.3,15.5
	H263.1z"/>
<path class="st1" d="M299.2,174.6c1.8,0,3.3,0.3,4.5,0.9c1.2,0.6,2.2,1.4,2.9,2.3c0.7,1,1.3,2.1,1.6,3.3c0.3,1.2,0.5,2.5,0.5,3.8
	c0,1.8-0.3,3.3-0.8,4.6c-0.5,1.3-1.3,2.4-2.2,3.2c-0.9,0.8-2.1,1.5-3.4,1.9c-1.3,0.4-2.8,0.6-4.5,0.6H294V209h-6.9v-34.4H299.2z
	 M297.1,190.1c1.4,0,2.5-0.4,3.3-1.3c0.9-0.8,1.3-2.1,1.3-3.9c0-1.7-0.4-3-1.1-3.9c-0.7-0.9-2-1.3-3.7-1.3H294v10.4H297.1z"/>
<polygon class="st1" points="342.8,180.3 330.5,180.3 330.5,188.4 342.1,188.4 342.1,194 330.5,194 330.5,203.3 343.3,203.3 
	343.3,209 323.6,209 323.6,174.6 342.8,174.6 "/>
<path class="st0" d="M39.6,229.4l3.2,12.1h-2.5l-0.6-2.6h-3.2l-0.6,2.6h-2.5l3.2-12.1H39.6z M39.3,237l-1.2-5.5h0l-1.2,5.5H39.3z"/>
<polygon class="st0" points="60.3,237.7 60.3,237.7 60.3,229.4 62.6,229.4 62.6,241.6 59.8,241.6 56.8,233.1 56.8,233.1 56.8,241.6 
	54.5,241.6 54.5,229.4 57.3,229.4 "/>
<path class="st0" d="M73.1,229.4l3.2,12.1h-2.5l-0.6-2.6h-3.2l-0.6,2.6h-2.5l3.2-12.1H73.1z M72.7,237l-1.2-5.5h0l-1.2,5.5H72.7z"/>
<polygon class="st0" points="86.7,231.4 84,231.4 84,241.6 81.6,241.6 81.6,231.4 78.9,231.4 78.9,229.4 86.7,229.4 "/>
<path class="st0" d="M93.4,237.9c0,0.3,0,0.6,0.1,0.8c0,0.3,0.1,0.5,0.2,0.7c0.1,0.2,0.3,0.3,0.4,0.4c0.2,0.1,0.4,0.2,0.7,0.2
	c0.3,0,0.5-0.1,0.7-0.2c0.2-0.1,0.3-0.3,0.4-0.4c0.1-0.2,0.2-0.4,0.2-0.7c0-0.3,0.1-0.5,0.1-0.8v-8.5h2.4v8.5c0,0.8-0.1,1.4-0.3,1.9
	c-0.2,0.5-0.5,0.9-0.9,1.2c-0.4,0.3-0.8,0.5-1.2,0.6c-0.5,0.1-0.9,0.2-1.4,0.2c-0.5,0-1,0-1.4-0.1c-0.5-0.1-0.9-0.3-1.2-0.6
	c-0.4-0.3-0.7-0.7-0.9-1.2c-0.2-0.5-0.3-1.2-0.3-2v-8.5h2.4V237.9z"/>
<path class="st0" d="M108.2,229.4c1,0,1.8,0.3,2.4,0.8c0.6,0.5,0.8,1.3,0.8,2.4c0,0.8-0.2,1.5-0.5,2c-0.3,0.5-0.8,0.8-1.5,1v0
	c0.6,0.1,1.1,0.3,1.3,0.6c0.3,0.3,0.5,0.8,0.5,1.5c0,0.2,0,0.5,0.1,0.7c0,0.3,0,0.6,0,0.9c0,0.6,0.1,1.1,0.1,1.5
	c0.1,0.3,0.2,0.6,0.4,0.7v0.1h-2.6c-0.1-0.2-0.2-0.4-0.2-0.6c0-0.2-0.1-0.5-0.1-0.7l-0.1-2.3c0-0.5-0.1-0.8-0.4-1.1
	c-0.2-0.3-0.6-0.4-1.1-0.4h-1.3v5.1h-2.4v-12.1H108.2z M107.1,234.7c0.6,0,1-0.1,1.4-0.4c0.3-0.3,0.5-0.7,0.5-1.4
	c0-1.1-0.6-1.7-1.7-1.7h-1.2v3.5H107.1z"/>
<path class="st0" d="M121.9,229.4l3.2,12.1h-2.5L122,239h-3.2l-0.6,2.6h-2.5l3.2-12.1H121.9z M121.6,237l-1.2-5.5h0l-1.2,5.5H121.6z
	"/>
<polygon class="st0" points="129.3,229.4 131.8,229.4 131.8,239.5 136.1,239.5 136.1,241.6 129.3,241.6 "/>
<polygon class="st0" points="149.1,229.4 150.4,238.4 150.4,238.4 151.9,229.4 154.2,229.4 155.6,238.4 155.7,238.4 157,229.4 
	159.4,229.4 157.2,241.6 154.4,241.6 153.1,232.8 153,232.8 151.7,241.6 148.9,241.6 146.7,229.4 "/>
<path class="st0" d="M168.8,229.4l3.2,12.1h-2.5l-0.6-2.6h-3.2l-0.6,2.6h-2.5l3.2-12.1H168.8z M168.5,237l-1.2-5.5h0l-1.2,5.5H168.5
	z"/>
<path class="st0" d="M178.3,238.1c0,0.3,0,0.5,0.1,0.8c0,0.2,0.1,0.4,0.3,0.6c0.1,0.2,0.3,0.3,0.5,0.4c0.2,0.1,0.5,0.1,0.8,0.1
	c0.4,0,0.7-0.1,1-0.4c0.3-0.2,0.5-0.6,0.5-1.1c0-0.3,0-0.5-0.1-0.7c-0.1-0.2-0.2-0.4-0.4-0.5c-0.2-0.2-0.4-0.3-0.7-0.4
	c-0.3-0.1-0.6-0.3-1-0.4c-0.5-0.2-1-0.4-1.4-0.6c-0.4-0.2-0.7-0.5-1-0.8c-0.3-0.3-0.5-0.6-0.6-1c-0.1-0.4-0.2-0.8-0.2-1.3
	c0-1.2,0.3-2.1,1-2.7c0.7-0.6,1.6-0.9,2.8-0.9c0.5,0,1,0.1,1.5,0.2c0.5,0.1,0.9,0.3,1.2,0.6c0.3,0.3,0.6,0.6,0.8,1
	c0.2,0.4,0.3,0.9,0.3,1.5v0.3h-2.3c0-0.6-0.1-1-0.3-1.3c-0.2-0.3-0.5-0.5-1-0.5c-0.3,0-0.5,0-0.7,0.1c-0.2,0.1-0.3,0.2-0.4,0.3
	c-0.1,0.1-0.2,0.3-0.2,0.5c0,0.2-0.1,0.3-0.1,0.5c0,0.4,0.1,0.7,0.2,0.9c0.2,0.3,0.5,0.5,1,0.7l1.9,0.8c0.5,0.2,0.8,0.4,1.1,0.6
	c0.3,0.2,0.5,0.5,0.7,0.7c0.2,0.3,0.3,0.5,0.4,0.8c0.1,0.3,0.1,0.6,0.1,1c0,1.3-0.4,2.2-1.1,2.8c-0.7,0.6-1.8,0.9-3.1,0.9
	c-1.4,0-2.4-0.3-3-0.9c-0.6-0.6-0.9-1.5-0.9-2.6v-0.5h2.4V238.1z"/>
<path class="st0" d="M193.9,229.4l3.2,12.1h-2.5L194,239h-3.2l-0.6,2.6h-2.5l3.2-12.1H193.9z M193.6,237l-1.2-5.5h0l-1.2,5.5H193.6z
	"/>
<path class="st0" d="M206.6,232.3c-0.1-0.2-0.1-0.5-0.2-0.7c-0.1-0.2-0.3-0.4-0.4-0.5c-0.2-0.1-0.4-0.2-0.6-0.2c-0.6,0-1,0.3-1.3,1
	c-0.3,0.7-0.4,1.7-0.4,3.3c0,0.7,0,1.4,0.1,2c0,0.6,0.1,1.1,0.2,1.5c0.1,0.4,0.3,0.7,0.5,1c0.2,0.2,0.5,0.3,0.9,0.3
	c0.1,0,0.3,0,0.5-0.1c0.2-0.1,0.3-0.2,0.5-0.4c0.2-0.2,0.3-0.4,0.4-0.6c0.1-0.2,0.2-0.5,0.2-0.9v-1.2h-1.6V235h4v6.5h-1.8v-1.1h0
	c-0.3,0.5-0.6,0.8-1.1,1c-0.4,0.2-0.9,0.3-1.5,0.3c-0.7,0-1.4-0.1-1.8-0.4c-0.5-0.3-0.8-0.7-1.1-1.2c-0.3-0.5-0.4-1.2-0.5-2
	c-0.1-0.8-0.1-1.7-0.1-2.8c0-1,0.1-1.9,0.2-2.7c0.1-0.8,0.4-1.4,0.7-1.9c0.3-0.5,0.7-0.9,1.3-1.2c0.5-0.3,1.2-0.4,2-0.4
	c1.3,0,2.3,0.3,2.9,1c0.6,0.7,0.9,1.6,0.9,2.8h-2.3C206.7,232.8,206.7,232.6,206.6,232.3"/>
<path class="st0" d="M219.6,229.4l3.2,12.1h-2.5l-0.6-2.6h-3.2l-0.6,2.6h-2.5l3.2-12.1H219.6z M219.2,237l-1.2-5.5h0l-1.2,5.5H219.2
	z"/>
<polygon class="st0" points="241.3,231.4 236.9,231.4 236.9,234.3 241,234.3 241,236.3 236.9,236.3 236.9,239.5 241.4,239.5 
	241.4,241.6 234.5,241.6 234.5,229.4 241.3,229.4 "/>
<polygon class="st0" points="251.8,237.7 251.9,237.7 251.9,229.4 254.1,229.4 254.1,241.6 251.3,241.6 248.3,233.1 248.3,233.1 
	248.3,241.6 246.1,241.6 246.1,229.4 248.9,229.4 "/>
<path class="st0" d="M264.1,231.6c-0.2-0.4-0.6-0.6-1.1-0.6c-0.3,0-0.6,0.1-0.8,0.2c-0.2,0.2-0.4,0.4-0.5,0.8
	c-0.1,0.4-0.2,0.8-0.2,1.4c0,0.6-0.1,1.3-0.1,2.2c0,0.9,0,1.7,0.1,2.2c0.1,0.6,0.2,1,0.3,1.3c0.1,0.3,0.3,0.5,0.5,0.6
	c0.2,0.1,0.4,0.2,0.7,0.2c0.2,0,0.4,0,0.6-0.1c0.2-0.1,0.3-0.2,0.5-0.4c0.1-0.2,0.2-0.5,0.3-0.9c0.1-0.4,0.1-0.9,0.1-1.6h2.4
	c0,0.7-0.1,1.3-0.2,1.9c-0.1,0.6-0.3,1.1-0.6,1.5c-0.3,0.4-0.7,0.8-1.2,1c-0.5,0.2-1.2,0.4-2,0.4c-0.9,0-1.6-0.1-2.2-0.4
	c-0.5-0.3-1-0.7-1.2-1.3c-0.3-0.6-0.5-1.2-0.6-2c-0.1-0.8-0.1-1.6-0.1-2.5c0-0.9,0-1.8,0.1-2.5c0.1-0.8,0.3-1.4,0.6-2
	c0.3-0.6,0.7-1,1.2-1.3c0.5-0.3,1.3-0.5,2.2-0.5c0.9,0,1.6,0.1,2.1,0.4c0.5,0.3,0.9,0.6,1.1,1.1c0.2,0.4,0.4,0.9,0.5,1.4
	c0.1,0.5,0.1,1,0.1,1.4h-2.4C264.4,232.6,264.3,232,264.1,231.6"/>
<polygon class="st0" points="271.7,229.4 274.2,229.4 274.2,239.5 278.5,239.5 278.5,241.6 271.7,241.6 "/>
<path class="st0" d="M288.4,229.4l3.2,12.1H289l-0.6-2.6h-3.2l-0.6,2.6h-2.5l3.2-12.1H288.4z M288,237l-1.2-5.5h0l-1.2,5.5H288z"/>
<polygon class="st0" points="299,238.4 299.1,238.4 300.9,229.4 303.4,229.4 300.6,241.6 297.5,241.6 294.7,229.4 297.3,229.4 "/>
<polygon class="st0" points="314.5,231.4 310.1,231.4 310.1,234.3 314.2,234.3 314.2,236.3 310.1,236.3 310.1,239.5 314.6,239.5 
	314.6,241.6 307.7,241.6 307.7,229.4 314.5,229.4 "/>
<path class="st1" d="M139.9,124.2h-9.7V75.4c0,0,3.7,2.8,5.7,5c3,3.3,4,5.4,4,5.4V124.2z"/>
<path class="st1" d="M238.9,136.9c-10,0-43.4-4.5-76-59.8c-9.9-16.8-20-29.1-30.8-37.5l-1.9-1.5l0-16.6V2.2l39.6,0.6
	c23.4,0,42.5,19.1,42.5,42.5c0,19.7-13.4,36.4-31.8,41.1c9.8,13.7,22.9,27.9,38.7,35.5c10.1,4.9,19.7,5.7,22.6,5.4v9.4
	C241.6,136.8,240.6,136.9,238.9,136.9 M139.9,33.4c11.1,9.1,21.4,21.8,31.4,38.8c1.1,1.8,2.2,3.6,3.4,5.5
	c15.9-2.4,27.9-16.1,27.9-32.4c0-18.1-14.7-32.8-32.8-32.8l-0.1,0L139.9,12v9.5L139.9,33.4z"/>
</svg>
