<?xml version="1.0" encoding="utf-8"?>
<!-- Generator: Adobe Illustrator 27.5.0, SVG Export Plug-In . SVG Version: 6.00 Build 0)  -->
<svg version="1.1" id="Layer_1" xmlns="http://www.w3.org/2000/svg" xmlns:xlink="http://www.w3.org/1999/xlink" x="0px" y="0px"
	 viewBox="0 0 546.7 657.1" style="enable-background:new 0 0 546.7 657.1;" xml:space="preserve">
<style type="text/css">
	.st0{opacity:0.4;}
	.st1{clip-path:url(#SVGID_00000078002770633694932240000002370582047168378786_);fill:#FFFFFF;}
</style>
<g class="st0">
	<g>
		<defs>
			<rect id="SVGID_1_" x="3.8" y="1.9" width="538.9" height="650.1"/>
		</defs>
		<clipPath id="SVGID_00000088811430286117061970000017707932984302288822_">
			<use xlink:href="#SVGID_1_"  style="overflow:visible;"/>
		</clipPath>
		<path style="clip-path:url(#SVGID_00000088811430286117061970000017707932984302288822_);fill:#FFFFFF;" d="M50.6,590.5H3.8V355.1
			c0,0,18,13.3,27.6,23.9c14.4,15.8,19.2,26.2,19.2,26.2V590.5z"/>
		<path style="clip-path:url(#SVGID_00000088811430286117061970000017707932984302288822_);fill:#FFFFFF;" d="M528.5,652
			c-48.2,0-209.5-21.7-366.6-288.4C114.1,282.4,65.4,223.2,13,182.5l-9-7L3.8,95.3V1.9L195,4.8c113,0.1,205,92.1,205,205.2
			c0,94.9-64.7,175.5-153.3,198.6C293.9,474.6,357.1,543,433.5,580c48.8,23.6,95,27.7,109.2,26v45.2
			C541.6,651.4,536.6,652,528.5,652 M50.8,152.7c53.6,44,103.3,105.3,151.4,187.1c5.1,8.6,10.5,17.6,16.3,26.7
			c76.6-11.5,134.7-77.6,134.7-156.6c0-87.3-71-158.3-158.3-158.3l-0.4,0L50.6,49.4v45.9L50.8,152.7z"/>
	</g>
</g>
</svg>
