<?xml version="1.0" encoding="utf-8"?>
<!-- Generator: Adobe Illustrator 27.5.0, SVG Export Plug-In . SVG Version: 6.00 Build 0)  -->
<svg version="1.1" id="Layer_1" xmlns="http://www.w3.org/2000/svg" xmlns:xlink="http://www.w3.org/1999/xlink" x="0px" y="0px"
	 viewBox="0 0 346.1 244.3" style="enable-background:new 0 0 346.1 244.3;" xml:space="preserve">
<style type="text/css">
	.st0{fill:#FFFFFF;}
</style>
<path class="st0" d="M15,175.3c2.9,0,5.2,0.7,6.8,2.2c1.6,1.5,2.4,3.7,2.4,6.7c0,2.3-0.5,4.2-1.4,5.7c-0.9,1.5-2.4,2.4-4.4,2.8v0.1
	c1.7,0.3,3,0.8,3.8,1.7c0.8,0.9,1.3,2.3,1.5,4.2c0.1,0.6,0.1,1.3,0.1,2.1c0,0.8,0.1,1.6,0.1,2.5c0.1,1.8,0.2,3.2,0.3,4.2
	c0.2,1,0.6,1.6,1.3,2v0.3H18c-0.4-0.5-0.6-1-0.7-1.7s-0.2-1.3-0.2-2l-0.2-6.6c-0.1-1.4-0.4-2.4-1-3.2c-0.6-0.8-1.6-1.2-3.1-1.2H9.1
	v14.6h-7v-34.5H15z M12,190.4c1.7,0,3-0.4,3.9-1.2c0.9-0.8,1.4-2.1,1.4-4c0-3.2-1.6-4.8-4.8-4.8H9.1v10H12z"/>
<rect x="40.9" y="175.3" class="st0" width="7" height="34.5"/>
<polygon class="st0" points="74.7,200.9 74.9,200.9 80,175.3 87.2,175.3 79.3,209.9 70.3,209.9 62.4,175.3 69.9,175.3 "/>
<polygon class="st0" points="120.7,181 108.4,181 108.4,189.2 120,189.2 120,194.9 108.4,194.9 108.4,204.2 121.2,204.2 
	121.2,209.9 101.4,209.9 101.4,175.3 120.7,175.3 "/>
<path class="st0" d="M149.1,175.3c2.9,0,5.2,0.7,6.8,2.2c1.6,1.5,2.4,3.7,2.4,6.7c0,2.3-0.5,4.2-1.4,5.7c-0.9,1.5-2.4,2.4-4.4,2.8
	v0.1c1.7,0.3,3,0.8,3.8,1.7c0.8,0.9,1.3,2.3,1.5,4.2c0.1,0.6,0.1,1.3,0.1,2.1c0,0.8,0.1,1.6,0.1,2.5c0.1,1.8,0.2,3.2,0.3,4.2
	c0.2,1,0.6,1.6,1.3,2v0.3h-7.5c-0.4-0.5-0.6-1-0.7-1.7s-0.2-1.3-0.2-2l-0.2-6.6c-0.1-1.4-0.4-2.4-1-3.2c-0.6-0.8-1.6-1.2-3.1-1.2
	h-3.7v14.6h-7v-34.5H149.1z M146.1,190.4c1.7,0,3-0.4,3.9-1.2c0.9-0.8,1.4-2.1,1.4-4c0-3.2-1.6-4.8-4.8-4.8h-3.3v10H146.1z"/>
<path class="st0" d="M180.4,200.1c0,0.8,0.1,1.5,0.2,2.2c0.1,0.7,0.4,1.2,0.7,1.7c0.4,0.5,0.8,0.8,1.4,1.1c0.6,0.3,1.3,0.4,2.2,0.4
	c1.1,0,2-0.3,2.9-1c0.9-0.7,1.3-1.8,1.3-3.2c0-0.8-0.1-1.4-0.3-2c-0.2-0.6-0.6-1.1-1-1.5c-0.5-0.5-1.1-0.9-1.9-1.2
	c-0.8-0.4-1.8-0.7-2.9-1.1c-1.5-0.5-2.9-1.1-4-1.7c-1.1-0.6-2.1-1.3-2.8-2.2c-0.8-0.8-1.3-1.8-1.7-2.9c-0.4-1.1-0.5-2.3-0.5-3.7
	c0-3.4,1-6,2.9-7.6c1.9-1.7,4.5-2.5,7.8-2.5c1.5,0,3,0.2,4.3,0.5c1.3,0.3,2.4,0.9,3.4,1.6c1,0.8,1.7,1.7,2.2,2.9
	c0.5,1.2,0.8,2.6,0.8,4.2v1h-6.7c0-1.6-0.3-2.9-0.9-3.8c-0.6-0.9-1.5-1.3-2.9-1.3c-0.8,0-1.4,0.1-1.9,0.3c-0.5,0.2-0.9,0.5-1.2,0.9
	c-0.3,0.4-0.5,0.8-0.6,1.3c-0.1,0.5-0.2,1-0.2,1.5c0,1.1,0.2,2,0.7,2.7c0.5,0.7,1.4,1.4,2.9,2l5.4,2.3c1.3,0.6,2.4,1.2,3.2,1.8
	c0.8,0.6,1.5,1.3,2,2c0.5,0.7,0.8,1.5,1,2.4c0.2,0.9,0.3,1.8,0.3,2.9c0,3.6-1.1,6.3-3.2,8s-5.1,2.5-8.8,2.5c-3.9,0-6.7-0.9-8.4-2.6
	s-2.5-4.2-2.5-7.4v-1.4h7V200.1z"/>
<path class="st0" d="M225.3,181.5c-0.6-1.1-1.7-1.7-3.3-1.7c-0.9,0-1.6,0.2-2.2,0.7c-0.6,0.5-1,1.2-1.3,2.3c-0.3,1-0.5,2.4-0.7,4.1
	c-0.1,1.7-0.2,3.8-0.2,6.2c0,2.6,0.1,4.7,0.3,6.3c0.2,1.6,0.5,2.9,0.8,3.7s0.8,1.5,1.4,1.8c0.6,0.3,1.2,0.5,2,0.5
	c0.6,0,1.2-0.1,1.7-0.3c0.5-0.2,1-0.6,1.4-1.3c0.4-0.6,0.7-1.5,0.9-2.7c0.2-1.1,0.3-2.7,0.3-4.5h7c0,1.9-0.1,3.6-0.4,5.3
	c-0.3,1.7-0.8,3.1-1.6,4.4c-0.8,1.3-1.9,2.2-3.3,3s-3.3,1.1-5.6,1.1c-2.6,0-4.7-0.4-6.2-1.3c-1.5-0.8-2.7-2-3.6-3.6
	c-0.8-1.6-1.4-3.5-1.6-5.7c-0.2-2.2-0.4-4.6-0.4-7.3c0-2.6,0.1-5,0.4-7.2s0.8-4.1,1.6-5.7c0.8-1.6,2-2.8,3.6-3.7
	c1.5-0.9,3.6-1.3,6.2-1.3c2.5,0,4.4,0.4,5.9,1.2c1.4,0.8,2.5,1.8,3.2,3.1s1.2,2.6,1.3,4c0.2,1.4,0.3,2.8,0.3,4h-7
	C226.2,184.5,225.9,182.7,225.3,181.5"/>
<path class="st0" d="M264.4,175.3l9.1,34.5h-7.3l-1.6-7.3h-9.2l-1.6,7.3h-7.3l9.1-34.5H264.4z M263.5,196.9l-3.3-15.5H260l-3.3,15.5
	H263.5z"/>
<path class="st0" d="M299.8,175.3c1.8,0,3.3,0.3,4.5,0.9c1.2,0.6,2.2,1.4,2.9,2.3c0.7,1,1.3,2.1,1.6,3.3c0.3,1.2,0.5,2.5,0.5,3.8
	c0,1.8-0.3,3.3-0.8,4.6c-0.5,1.3-1.3,2.4-2.2,3.2c-1,0.8-2.1,1.5-3.5,1.9c-1.4,0.4-2.9,0.6-4.5,0.6h-3.7v13.8h-7v-34.5H299.8z
	 M297.6,191c1.4,0,2.5-0.4,3.4-1.3c0.9-0.8,1.3-2.1,1.3-3.9c0-1.7-0.4-3.1-1.1-4c-0.7-0.9-2-1.4-3.7-1.4h-2.9V191H297.6z"/>
<polygon class="st0" points="343.6,181 331.2,181 331.2,189.2 342.9,189.2 342.9,194.9 331.2,194.9 331.2,204.2 344.1,204.2 
	344.1,209.9 324.3,209.9 324.3,175.3 343.6,175.3 "/>
<path class="st0" d="M39,230.4l3.2,12.2h-2.6l-0.6-2.6h-3.2l-0.6,2.6h-2.6l3.2-12.2H39z M38.6,238l-1.2-5.5h0l-1.2,5.5H38.6z"/>
<polygon class="st0" points="59.8,238.8 59.8,238.8 59.8,230.4 62,230.4 62,242.6 59.2,242.6 56.2,234.1 56.2,234.1 56.2,242.6 
	54,242.6 54,230.4 56.8,230.4 "/>
<path class="st0" d="M72.6,230.4l3.2,12.2h-2.6l-0.6-2.6h-3.2l-0.6,2.6h-2.6l3.2-12.2H72.6z M72.3,238l-1.2-5.5h0l-1.2,5.5H72.3z"/>
<polygon class="st0" points="86.3,232.4 83.6,232.4 83.6,242.6 81.1,242.6 81.1,232.4 78.5,232.4 78.5,230.4 86.3,230.4 "/>
<path class="st0" d="M93,238.9c0,0.3,0,0.6,0.1,0.8c0,0.3,0.1,0.5,0.2,0.7c0.1,0.2,0.3,0.3,0.4,0.4c0.2,0.1,0.4,0.2,0.7,0.2
	c0.3,0,0.5-0.1,0.7-0.2c0.2-0.1,0.3-0.3,0.4-0.4c0.1-0.2,0.2-0.4,0.2-0.7c0-0.3,0.1-0.5,0.1-0.8v-8.5h2.5v8.5c0,0.8-0.1,1.4-0.3,1.9
	c-0.2,0.5-0.5,0.9-0.9,1.2c-0.4,0.3-0.8,0.5-1.2,0.6c-0.5,0.1-1,0.2-1.5,0.2c-0.5,0-1,0-1.5-0.1c-0.5-0.1-0.9-0.3-1.2-0.6
	c-0.4-0.3-0.7-0.7-0.9-1.2s-0.3-1.2-0.3-2v-8.5H93V238.9z"/>
<path class="st0" d="M107.9,230.4c1,0,1.8,0.3,2.4,0.8c0.6,0.5,0.9,1.3,0.9,2.4c0,0.8-0.2,1.5-0.5,2c-0.3,0.5-0.8,0.9-1.5,1v0
	c0.6,0.1,1.1,0.3,1.3,0.6c0.3,0.3,0.5,0.8,0.5,1.5c0,0.2,0,0.5,0.1,0.7c0,0.3,0,0.6,0,0.9c0,0.6,0.1,1.1,0.1,1.5
	c0.1,0.3,0.2,0.6,0.4,0.7v0.1h-2.7c-0.1-0.2-0.2-0.4-0.2-0.6c0-0.2-0.1-0.5-0.1-0.7l-0.1-2.3c0-0.5-0.1-0.9-0.4-1.1
	c-0.2-0.3-0.6-0.4-1.1-0.4h-1.3v5.2h-2.5v-12.2H107.9z M106.8,235.8c0.6,0,1-0.1,1.4-0.4c0.3-0.3,0.5-0.7,0.5-1.4
	c0-1.1-0.6-1.7-1.7-1.7h-1.2v3.5H106.8z"/>
<path class="st0" d="M121.6,230.4l3.2,12.2h-2.6l-0.6-2.6h-3.2l-0.6,2.6h-2.6l3.2-12.2H121.6z M121.3,238l-1.2-5.5h0l-1.2,5.5H121.3
	z"/>
<polygon class="st0" points="129.1,230.4 131.6,230.4 131.6,240.6 135.9,240.6 135.9,242.6 129.1,242.6 "/>
<polygon class="st0" points="149,230.4 150.3,239.4 150.3,239.4 151.8,230.4 154.1,230.4 155.6,239.4 155.6,239.4 156.9,230.4 
	159.3,230.4 157.1,242.6 154.3,242.6 153,233.8 152.9,233.8 151.6,242.6 148.8,242.6 146.6,230.4 "/>
<path class="st0" d="M168.8,230.4l3.2,12.2h-2.6l-0.6-2.6h-3.2l-0.6,2.6h-2.6l3.2-12.2H168.8z M168.5,238l-1.2-5.5h0l-1.2,5.5H168.5
	z"/>
<path class="st0" d="M178.3,239.2c0,0.3,0,0.5,0.1,0.8c0,0.2,0.1,0.4,0.3,0.6s0.3,0.3,0.5,0.4c0.2,0.1,0.5,0.1,0.8,0.1
	c0.4,0,0.7-0.1,1-0.4c0.3-0.2,0.5-0.6,0.5-1.1c0-0.3,0-0.5-0.1-0.7c-0.1-0.2-0.2-0.4-0.4-0.5c-0.2-0.2-0.4-0.3-0.7-0.4
	c-0.3-0.1-0.6-0.3-1-0.4c-0.5-0.2-1-0.4-1.4-0.6c-0.4-0.2-0.7-0.5-1-0.8c-0.3-0.3-0.5-0.6-0.6-1s-0.2-0.8-0.2-1.3
	c0-1.2,0.3-2.1,1-2.7c0.7-0.6,1.6-0.9,2.8-0.9c0.5,0,1.1,0.1,1.5,0.2c0.5,0.1,0.9,0.3,1.2,0.6c0.3,0.3,0.6,0.6,0.8,1
	c0.2,0.4,0.3,0.9,0.3,1.5v0.3h-2.4c0-0.6-0.1-1-0.3-1.3c-0.2-0.3-0.5-0.5-1-0.5c-0.3,0-0.5,0-0.7,0.1c-0.2,0.1-0.3,0.2-0.4,0.3
	c-0.1,0.1-0.2,0.3-0.2,0.5c0,0.2-0.1,0.3-0.1,0.5c0,0.4,0.1,0.7,0.2,0.9c0.2,0.3,0.5,0.5,1,0.7l1.9,0.8c0.5,0.2,0.8,0.4,1.1,0.6
	c0.3,0.2,0.5,0.5,0.7,0.7c0.2,0.3,0.3,0.5,0.4,0.8c0.1,0.3,0.1,0.6,0.1,1c0,1.3-0.4,2.2-1.1,2.8s-1.8,0.9-3.1,0.9
	c-1.4,0-2.4-0.3-3-0.9c-0.6-0.6-0.9-1.5-0.9-2.6v-0.5h2.5V239.2z"/>
<path class="st0" d="M194,230.4l3.2,12.2h-2.6l-0.6-2.6h-3.2l-0.6,2.6h-2.6l3.2-12.2H194z M193.6,238l-1.2-5.5h0l-1.2,5.5H193.6z"/>
<path class="st0" d="M206.8,233.3c-0.1-0.2-0.1-0.5-0.2-0.7c-0.1-0.2-0.3-0.4-0.4-0.5c-0.2-0.1-0.4-0.2-0.6-0.2c-0.6,0-1,0.3-1.3,1
	c-0.3,0.7-0.4,1.8-0.4,3.3c0,0.7,0,1.4,0.1,2c0,0.6,0.1,1.1,0.2,1.5c0.1,0.4,0.3,0.7,0.5,1c0.2,0.2,0.5,0.3,0.9,0.3
	c0.1,0,0.3,0,0.5-0.1s0.3-0.2,0.5-0.4s0.3-0.4,0.4-0.6c0.1-0.2,0.2-0.5,0.2-0.9v-1.2h-1.6V236h4v6.6h-1.8v-1.1h0
	c-0.3,0.5-0.7,0.8-1.1,1c-0.4,0.2-0.9,0.3-1.5,0.3c-0.8,0-1.4-0.1-1.8-0.4c-0.5-0.3-0.8-0.7-1.1-1.2c-0.3-0.5-0.4-1.2-0.5-2
	c-0.1-0.8-0.1-1.7-0.1-2.8c0-1,0.1-1.9,0.2-2.7c0.1-0.8,0.4-1.4,0.7-1.9c0.3-0.5,0.7-0.9,1.3-1.2c0.5-0.3,1.2-0.4,2-0.4
	c1.3,0,2.3,0.3,2.9,1c0.6,0.7,0.9,1.6,0.9,2.9h-2.4C206.9,233.8,206.8,233.6,206.8,233.3"/>
<path class="st0" d="M219.8,230.4l3.2,12.2h-2.6l-0.6-2.6h-3.2l-0.6,2.6h-2.6l3.2-12.2H219.8z M219.4,238l-1.2-5.5h0L217,238H219.4z
	"/>
<polygon class="st0" points="241.6,232.4 237.2,232.4 237.2,235.3 241.3,235.3 241.3,237.3 237.2,237.3 237.2,240.6 241.7,240.6 
	241.7,242.6 234.8,242.6 234.8,230.4 241.6,230.4 "/>
<polygon class="st0" points="252.2,238.8 252.2,238.8 252.2,230.4 254.5,230.4 254.5,242.6 251.7,242.6 248.7,234.1 248.6,234.1 
	248.6,242.6 246.4,242.6 246.4,230.4 249.2,230.4 "/>
<path class="st0" d="M264.5,232.6c-0.2-0.4-0.6-0.6-1.2-0.6c-0.3,0-0.6,0.1-0.8,0.2c-0.2,0.2-0.4,0.4-0.5,0.8
	c-0.1,0.4-0.2,0.9-0.2,1.5c0,0.6-0.1,1.3-0.1,2.2c0,0.9,0,1.7,0.1,2.2c0.1,0.6,0.2,1,0.3,1.3c0.1,0.3,0.3,0.5,0.5,0.6
	c0.2,0.1,0.4,0.2,0.7,0.2c0.2,0,0.4,0,0.6-0.1s0.3-0.2,0.5-0.4c0.1-0.2,0.2-0.5,0.3-0.9c0.1-0.4,0.1-0.9,0.1-1.6h2.5
	c0,0.7-0.1,1.3-0.2,1.9c-0.1,0.6-0.3,1.1-0.6,1.6c-0.3,0.4-0.7,0.8-1.2,1c-0.5,0.3-1.2,0.4-2,0.4c-0.9,0-1.7-0.1-2.2-0.4
	c-0.5-0.3-1-0.7-1.3-1.3c-0.3-0.6-0.5-1.2-0.6-2c-0.1-0.8-0.1-1.6-0.1-2.6c0-0.9,0-1.8,0.1-2.6c0.1-0.8,0.3-1.4,0.6-2
	c0.3-0.6,0.7-1,1.3-1.3c0.5-0.3,1.3-0.5,2.2-0.5c0.9,0,1.6,0.1,2.1,0.4s0.9,0.6,1.1,1.1c0.2,0.4,0.4,0.9,0.5,1.4
	c0.1,0.5,0.1,1,0.1,1.4h-2.5C264.8,233.7,264.7,233,264.5,232.6"/>
<polygon class="st0" points="272.2,230.4 274.6,230.4 274.6,240.6 279,240.6 279,242.6 272.2,242.6 "/>
<path class="st0" d="M288.9,230.4l3.2,12.2h-2.6L289,240h-3.2l-0.6,2.6h-2.6l3.2-12.2H288.9z M288.6,238l-1.2-5.5h0l-1.2,5.5H288.6z
	"/>
<polygon class="st0" points="299.6,239.4 299.6,239.4 301.4,230.4 304,230.4 301.2,242.6 298,242.6 295.2,230.4 297.9,230.4 "/>
<polygon class="st0" points="315.1,232.4 310.8,232.4 310.8,235.3 314.9,235.3 314.9,237.3 310.8,237.3 310.8,240.6 315.3,240.6 
	315.3,242.6 308.3,242.6 308.3,230.4 315.1,230.4 "/>
<path class="st0" d="M139.7,124.7H130v-49c0,0,3.7,2.8,5.8,5c3,3.3,4,5.5,4,5.5V124.7z"/>
<path class="st0" d="M239.2,137.5c-10,0-43.6-4.5-76.3-60c-10-16.9-20.1-29.2-31-37.7l-1.9-1.5l0-16.7V2.1l39.8,0.6
	c23.5,0,42.7,19.2,42.7,42.7c0,19.8-13.5,36.5-31.9,41.3c9.8,13.8,23,28,38.9,35.7c10.2,4.9,19.8,5.8,22.7,5.4v9.4
	C241.9,137.3,240.9,137.5,239.2,137.5 M139.8,33.5c11.2,9.2,21.5,21.9,31.5,39c1.1,1.8,2.2,3.7,3.4,5.6c15.9-2.4,28-16.2,28-32.6
	c0-18.2-14.8-33-33-33l-0.1,0l-30-0.5v9.5L139.8,33.5z"/>
</svg>
