<?xml version="1.0" encoding="utf-8"?>
<!-- Generator: Adobe Illustrator 27.5.0, SVG Export Plug-In . SVG Version: 6.00 Build 0)  -->
<svg version="1.1" id="Layer_1" xmlns="http://www.w3.org/2000/svg" xmlns:xlink="http://www.w3.org/1999/xlink" x="0px" y="0px"
	 viewBox="0 0 216.4 56.2" style="enable-background:new 0 0 216.4 56.2;" xml:space="preserve">
<style type="text/css">
	.st0{fill:#FFFFFF;}
</style>
<path class="st0" d="M60.2,44.5v2.4c0,0.5,0,0.8,0.1,0.9s0.3,0.2,0.7,0.2l0.1,0v0.5h-3.5V48l0.1,0c0.4,0,0.6-0.1,0.7-0.2
	c0.1-0.1,0.1-0.4,0.1-0.9v-5c0-0.5,0-0.8-0.1-0.9c-0.1-0.1-0.3-0.2-0.7-0.2l-0.1,0v-0.5h3.5v0.5l-0.1,0c-0.4,0-0.6,0.1-0.7,0.2
	c-0.1,0.1-0.1,0.4-0.1,0.9v2h3.4v-2c0-0.5,0-0.8-0.1-0.9c-0.1-0.1-0.3-0.2-0.7-0.2l-0.1,0v-0.5h3.5v0.5l-0.1,0
	c-0.4,0-0.6,0.1-0.7,0.2c-0.1,0.1-0.1,0.4-0.1,0.9v5c0,0.5,0,0.8,0.1,0.9c0.1,0.1,0.3,0.2,0.7,0.2l0.1,0v0.5h-3.5V48l0.1,0
	c0.4,0,0.6-0.1,0.7-0.2c0.1-0.1,0.1-0.4,0.1-0.9v-2.4H60.2z"/>
<path class="st0" d="M84.4,48.7c-1.3,0-2.3-0.4-3-1.1c-0.7-0.8-1.1-1.8-1.1-3.1c0-1.3,0.4-2.4,1.1-3.1c0.7-0.8,1.7-1.1,3-1.1
	c1.3,0,2.3,0.4,3,1.1c0.7,0.8,1.1,1.8,1.1,3.1c0,1.3-0.4,2.4-1.1,3.1C86.7,48.3,85.7,48.7,84.4,48.7 M84.4,48.1
	c0.8,0,1.4-0.3,1.8-0.9c0.4-0.6,0.6-1.6,0.6-2.8c0-1.2-0.2-2.2-0.6-2.8c-0.4-0.6-1-0.9-1.8-0.9c-0.8,0-1.4,0.3-1.7,0.9
	c-0.4,0.6-0.6,1.5-0.6,2.8c0,1.3,0.2,2.2,0.6,2.8C83.1,47.8,83.7,48.1,84.4,48.1"/>
<path class="st0" d="M102.8,40.3h2.7l2.3,5.3l2.3-5.3h2.4v0.5l-0.1,0c-0.4,0-0.6,0.1-0.7,0.2c-0.1,0.1-0.1,0.4-0.1,0.9v5
	c0,0.5,0,0.8,0.1,0.9c0.1,0.1,0.3,0.2,0.7,0.2l0.1,0v0.5h-3.2V48l0.1,0c0.3,0,0.5-0.1,0.6-0.2c0.1-0.1,0.1-0.4,0.1-0.9v-4.8
	l-2.5,5.5h-0.5l-2.5-5.9v5.2c0,0.5,0,0.8,0.1,0.9c0.1,0.1,0.2,0.2,0.6,0.2l0.1,0v0.5h-2.4V48l0.1,0c0.4,0,0.6-0.1,0.7-0.2
	c0.1-0.1,0.1-0.4,0.1-0.9v-5c0-0.5,0-0.8-0.1-0.9c-0.1-0.1-0.3-0.2-0.7-0.2l-0.1,0V40.3z"/>
<path class="st0" d="M132.7,48.5h-6.2V48l0.1,0c0.4,0,0.6-0.1,0.7-0.2c0.1-0.1,0.1-0.4,0.1-0.9v-5c0-0.5,0-0.8-0.1-0.9
	c-0.1-0.1-0.3-0.2-0.7-0.2l-0.1,0v-0.5h6v1.5h-0.8l0-0.1c0-0.2,0-0.3,0-0.3c0-0.2,0-0.3-0.1-0.4c-0.1-0.1-0.3-0.1-0.7-0.1H129V44
	h1.1c0.4,0,0.7,0,0.7,0c0.1,0,0.1-0.2,0.1-0.5l0-0.1h0.6v1.8H131l0-0.1c0-0.3-0.1-0.5-0.2-0.5c-0.1,0-0.3-0.1-0.7-0.1H129v2.4
	c0,0.6,0.1,0.9,0.2,1c0.1,0,0.4,0,0.9,0h0.7c0.5,0,0.9,0,0.9-0.1c0.1-0.1,0.1-0.3,0.1-0.8l0-0.1h0.8V48.5z"/>
<path class="st0" d="M147.1,48.4v-1.7h0.8l0,0.1c0,0.5,0.1,0.8,0.3,0.9c0.3,0.3,0.7,0.4,1.2,0.4c0.4,0,0.8-0.1,1.1-0.4
	c0.3-0.3,0.4-0.6,0.4-1.1c0-0.3-0.1-0.6-0.2-0.8c-0.2-0.2-0.5-0.4-0.9-0.7l-0.5-0.3c-1.4-0.7-2-1.6-2-2.4c0-0.7,0.2-1.3,0.7-1.7
	c0.5-0.4,1.1-0.6,2-0.6c0.6,0,1.4,0.1,2.2,0.4v1.6h-0.8l0-0.1c0-0.5-0.1-0.8-0.2-1c-0.3-0.3-0.6-0.4-1-0.4c-0.3,0-0.6,0.1-0.9,0.4
	c-0.2,0.3-0.4,0.6-0.4,0.9c0,0.3,0.1,0.5,0.2,0.7c0.2,0.2,0.5,0.4,0.9,0.7l0.5,0.3c0.8,0.5,1.4,0.9,1.7,1.2c0.3,0.4,0.4,0.8,0.4,1.3
	c0,0.7-0.3,1.3-0.8,1.8c-0.6,0.4-1.3,0.7-2.2,0.7C148.7,48.7,147.9,48.6,147.1,48.4"/>
<rect x="16.3" y="29.4" class="st0" width="3.2" height="3.2"/>
<rect x="21.5" y="29.4" class="st0" width="3.2" height="3.2"/>
<rect x="16.3" y="34.7" class="st0" width="3.2" height="3.2"/>
<rect x="21.5" y="34.7" class="st0" width="3.2" height="3.2"/>
<path class="st0" d="M11.6,32v5.3c0,4.6,3.9,8.8,8.9,8.9c4.9,0,8.9-4,8.9-8.9V32l-2.5-1.8v7.3c0,3.5-2.9,6.4-6.4,6.4
	c-1.7,0-3.3-0.8-4.5-2c-1.2-1.2-1.9-2.8-1.9-4.4v-7.2L11.6,32z"/>
<path class="st0" d="M20.5,50.4c7.2,0,13-5.8,13-13v-2.3l-2.5-1.8v4.2c0,5.8-4.7,10.6-10.6,10.6C14.7,48,10,43.2,10,37.4v-4.1
	l-2.5,1.9v2.3C7.5,44.6,13.3,50.4,20.5,50.4"/>
<path class="st0" d="M33.6,26l0-19.1c0-0.7-0.6-1.2-1.2-1.2c-0.7,0-1.2,0.6-1.2,1.2l0,17.2L33.6,26z"/>
<path class="st0" d="M38.1,29.4V13c0-0.7-0.6-1.2-1.2-1.2c-0.7,0-1.2,0.6-1.2,1.2v14.5L38.1,29.4z"/>
<path class="st0" d="M14.1,21.1V13c0-0.7-0.6-1.2-1.2-1.2c-0.7,0-1.2,0.6-1.2,1.2l0,10L14.1,21.1z"/>
<path class="st0" d="M35.6,36.6v0.8c0,8.3-6.7,15-15.1,15.1c-8.3,0-15-6.7-15.1-15.1v-0.7L3,38.4c0.6,9.2,8.2,16.4,17.5,16.4
	c9.3,0,16.9-7.3,17.5-16.5L35.6,36.6z"/>
<path class="st0" d="M5.5,27.6V13c0-0.7-0.6-1.2-1.2-1.2C3.5,11.8,3,12.4,3,13v16.4L5.5,27.6z"/>
<path class="st0" d="M10,24.2V6.9c0-0.7-0.6-1.2-1.2-1.2C8,5.7,7.5,6.3,7.5,6.9v19.2L10,24.2z"/>
<path class="st0" d="M29.4,22.9V13c0-0.7-0.6-1.2-1.2-1.2c-0.7,0-1.2,0.6-1.2,1.2v8L29.4,22.9z"/>
<polygon class="st0" points="39.9,33.2 20.6,18.8 1.1,33.3 1.1,37.4 20.6,22.9 39.9,37.3 "/>
<rect x="47.5" y="9.9" class="st0" width="0.9" height="42.1"/>
<path class="st0" d="M54.3,15.1h8.5v1.3l-0.2,0c-0.9,0.1-1.5,0.2-1.7,0.5c-0.2,0.2-0.3,1-0.3,2.2v8.7c0,2.4,0.3,4.1,1,5.2
	c0.7,1,1.8,1.5,3.4,1.5c1.7,0,3-0.5,3.8-1.6c0.8-1.1,1.2-2.8,1.2-5.2V19c0-1.2-0.1-1.9-0.3-2.2c-0.2-0.2-0.7-0.4-1.7-0.5l-0.2,0
	v-1.3h6.3v1.3l-0.2,0c-0.9,0.1-1.5,0.2-1.6,0.5c-0.2,0.2-0.3,1-0.3,2.2v8.3c0,2.9-0.6,5-1.8,6.4c-1.2,1.4-3.1,2.1-5.7,2.1
	c-5.4,0-8.1-2.7-8.1-8.2v-8.5c0-1.2-0.1-2-0.3-2.2c-0.2-0.3-0.7-0.4-1.6-0.5l-0.3,0V15.1z"/>
<path class="st0" d="M81.5,27v4.3c0,1.2,0.1,2,0.3,2.2s0.8,0.4,2,0.5l0.3,0v1.3h-8.7V34l0.3,0c0.9-0.1,1.5-0.2,1.6-0.5
	c0.2-0.2,0.3-1,0.3-2.2V19c0-1.2-0.1-1.9-0.3-2.2c-0.2-0.2-0.7-0.4-1.6-0.5l-0.3,0v-1.3h6.2l2.6-0.1l1.1,0c3.9,0,5.9,1.8,5.9,5.3
	c0,2.2-0.7,3.9-2.1,5c-1.4,1.1-3.5,1.7-6.3,1.7H81.5z M81.5,25.7h0.8c1.5,0,2.7-0.4,3.4-1.3c0.8-0.8,1.1-2.1,1.1-3.7
	c0-2.8-1.3-4.2-3.9-4.2h-1.5V25.7z"/>
<path class="st0" d="M98.4,27v4.3c0,1.2,0.1,2,0.3,2.2s0.8,0.4,2,0.5l0.3,0v1.3h-8.7V34l0.3,0c0.9-0.1,1.5-0.2,1.6-0.5
	c0.2-0.2,0.3-1,0.3-2.2V19c0-1.2-0.1-1.9-0.3-2.2c-0.2-0.2-0.7-0.4-1.6-0.5l-0.3,0v-1.3h6.2L101,15l1.1,0c3.9,0,5.9,1.8,5.9,5.3
	c0,2.2-0.7,3.9-2.1,5c-1.4,1.1-3.5,1.7-6.3,1.7H98.4z M98.4,25.7h0.8c1.5,0,2.7-0.4,3.4-1.3c0.8-0.8,1.1-2.1,1.1-3.7
	c0-2.8-1.3-4.2-3.9-4.2h-1.5V25.7z"/>
<path class="st0" d="M124.6,35.3h-15.3V34l0.3,0c0.9-0.1,1.5-0.2,1.6-0.5c0.2-0.2,0.3-1,0.3-2.2V19c0-1.2-0.1-1.9-0.3-2.2
	c-0.2-0.2-0.7-0.4-1.6-0.5l-0.3,0v-1.3H124v3.6h-2l0-0.3c0-0.5,0-0.7,0-0.8c0-0.5-0.1-0.8-0.4-1c-0.2-0.1-0.8-0.2-1.6-0.2h-4.3v7.7
	h2.8c1.1,0,1.7,0,1.8-0.1c0.2-0.1,0.2-0.5,0.3-1.3l0-0.3h1.4v4.4h-1.4l0-0.2c0-0.7-0.1-1.1-0.4-1.2c-0.2-0.1-0.8-0.1-1.7-0.1h-2.9v6
	c0,1.5,0.2,2.3,0.5,2.4c0.3,0.1,1,0.1,2.2,0.1h1.7c1.3,0,2.1-0.1,2.3-0.2c0.2-0.1,0.3-0.8,0.4-1.9l0-0.3h2V35.3z"/>
<path class="st0" d="M132.2,26.4v4.9c0,1.2,0.1,1.9,0.2,2.2c0.2,0.3,0.6,0.4,1.4,0.5l0.2,0v1.3h-8V34l0.3,0c0.9-0.1,1.5-0.2,1.6-0.5
	c0.2-0.2,0.3-1,0.3-2.2V19c0-1.2-0.1-1.9-0.3-2.2c-0.2-0.2-0.7-0.4-1.6-0.5l-0.3,0v-1.3h5.8l2.5-0.1l1.2,0c4.1,0,6.2,1.7,6.2,5.1
	c0,1.4-0.3,2.6-1,3.5c-0.6,1-1.6,1.7-2.9,2.2l3.9,5.5c1,1.3,1.6,2.1,1.8,2.3c0.3,0.2,0.8,0.3,1.5,0.4l0.3,0v1.3h-6l-5.5-8.8H132.2z
	 M132.2,25.1h0.7c1.4,0,2.5-0.4,3.4-1.3c0.8-0.8,1.2-2,1.2-3.5c0-2.6-1.3-3.9-3.8-3.9h-1.5V25.1z"/>
<path class="st0" d="M151.9,35.5L144.8,19c-0.6-1.5-1-2.2-1.1-2.4c-0.1-0.1-0.6-0.2-1.4-0.3l-0.3,0v-1.3h8.7v1.3l-0.3,0
	c-0.4,0-0.7,0-1,0c-0.3,0-0.5,0.2-0.5,0.6c0,0.3,0.2,1,0.7,2l4.5,10.6l4.3-10.6c0.1-0.2,0.2-0.6,0.4-1.1c0.2-0.5,0.3-0.9,0.3-1
	c0-0.3-0.3-0.5-0.8-0.5l-0.8,0l-0.2,0v-1.3h5.7v1.3l-0.2,0c-0.3,0-0.4,0-0.6,0c-0.5,0-0.8,0.1-0.9,0.4s-0.5,1-1.1,2.2l-6.8,16.5
	H151.9z"/>
<path class="st0" d="M172,35.3h-8.5V34l0.3,0c0.9-0.1,1.5-0.2,1.6-0.5c0.2-0.2,0.3-1,0.3-2.2V19c0-1.2-0.1-1.9-0.3-2.2
	c-0.2-0.2-0.7-0.4-1.6-0.5l-0.3,0v-1.3h8.5v1.3l-0.2,0c-0.9,0.1-1.5,0.2-1.7,0.5c-0.2,0.2-0.3,1-0.3,2.2v12.3c0,1.2,0.1,1.9,0.3,2.2
	c0.2,0.2,0.7,0.4,1.6,0.5l0.2,0V35.3z"/>
<path class="st0" d="M188.6,35.3h-15.3V34l0.3,0c0.9-0.1,1.5-0.2,1.6-0.5c0.2-0.2,0.3-1,0.3-2.2V19c0-1.2-0.1-1.9-0.3-2.2
	c-0.2-0.2-0.7-0.4-1.6-0.5l-0.3,0v-1.3H188v3.6h-2l0-0.3c0-0.5,0-0.7,0-0.8c0-0.5-0.1-0.8-0.4-1c-0.2-0.1-0.8-0.2-1.6-0.2h-4.3v7.7
	h2.8c1.1,0,1.7,0,1.8-0.1c0.2-0.1,0.2-0.5,0.3-1.3l0-0.3h1.4v4.4h-1.4l0-0.2c0-0.7-0.1-1.1-0.4-1.2c-0.2-0.1-0.8-0.1-1.7-0.1h-2.9v6
	c0,1.5,0.2,2.3,0.5,2.4c0.3,0.1,1,0.1,2.2,0.1h1.7c1.3,0,2.1-0.1,2.3-0.2c0.2-0.1,0.3-0.8,0.4-1.9l0-0.3h2V35.3z"/>
<path class="st0" d="M196,35.5l-4.6-16.4c-0.4-1.4-0.7-2.1-0.9-2.3c-0.2-0.2-0.6-0.3-1.3-0.4l-0.3,0v-1.3h7.8v1.3h-0.3
	c-1.1,0-1.6,0.2-1.6,0.5c0,0.4,0.1,1.2,0.4,2.2l2.6,9.3l4.1-13h1.5l4.4,13.8l3.2-10.1c0.1-0.2,0.2-0.6,0.3-1.2
	c0.1-0.5,0.2-0.9,0.2-1c0-0.4-0.5-0.6-1.5-0.6H210v-1.3h5.3v1.3l-0.2,0c-0.3,0-0.5,0-0.6,0c-0.5,0-0.8,0.1-0.9,0.2s-0.4,1-0.9,2.5
	l-5.2,16.4h-1.3l-4.5-14l-4.4,14H196z"/>
</svg>
