<?xml version="1.0" encoding="utf-8"?>
<!-- Generator: Adobe Illustrator 27.5.0, SVG Export Plug-In . SVG Version: 6.00 Build 0)  -->
<svg version="1.1" id="Layer_1" xmlns="http://www.w3.org/2000/svg" xmlns:xlink="http://www.w3.org/1999/xlink" x="0px" y="0px"
	 viewBox="0 0 1187.1 48.6" style="enable-background:new 0 0 1187.1 48.6;" xml:space="preserve">
<style type="text/css">
	.st0{fill:#FFFFFF;}
</style>
<g>
	<path class="st0" d="M28,25.9H11.7v15.1h18.2v4.5H6.3V3.7h22.6v4.5H11.7v13.3H28V25.9z"/>
	<path class="st0" d="M79.7,39c2.4,1.5,6,2.7,9.7,2.7c5.5,0,8.8-2.9,8.8-7.2c0-3.9-2.2-6.2-7.9-8.3c-6.8-2.4-11.1-6-11.1-11.9
		C79.2,7.8,84.6,3,92.8,3c4.3,0,7.4,1,9.3,2.1l-1.5,4.4c-1.4-0.7-4.2-2-8-2c-5.7,0-7.9,3.4-7.9,6.3c0,3.9,2.6,5.8,8.3,8.1
		c7.1,2.7,10.7,6.2,10.7,12.3c0,6.5-4.8,12.1-14.7,12.1c-4,0-8.5-1.2-10.7-2.7L79.7,39z"/>
	<path class="st0" d="M184,44.2c-2,1-6,2-11.1,2c-11.8,0-20.7-7.5-20.7-21.2c0-13.1,8.9-22,21.9-22c5.2,0,8.5,1.1,10,1.9l-1.3,4.4
		c-2.1-1-5-1.7-8.5-1.7c-9.8,0-16.4,6.3-16.4,17.3c0,10.3,5.9,16.9,16.1,16.9c3.3,0,6.7-0.7,8.8-1.7L184,44.2z"/>
	<path class="st0" d="M241.1,32.4l-4.4,13.2h-5.6l14.2-41.9h6.5l14.3,41.9h-5.8L256,32.4H241.1z M254.9,28.2l-4.1-12.1
		c-0.9-2.7-1.6-5.2-2.2-7.7h-0.1c-0.6,2.5-1.3,5-2.1,7.6l-4.1,12.1H254.9z"/>
	<path class="st0" d="M315.9,4.2c2.6-0.4,6-0.8,10.4-0.8c5.4,0,9.3,1.2,11.8,3.5c2.3,2,3.7,5,3.7,8.8c0,3.8-1.1,6.8-3.2,9
		c-2.9,3-7.5,4.6-12.8,4.6c-1.6,0-3.1-0.1-4.4-0.4v16.8h-5.4V4.2z M321.3,24.4c1.2,0.3,2.7,0.4,4.5,0.4c6.5,0,10.5-3.2,10.5-9
		c0-5.5-3.9-8.2-9.9-8.2c-2.4,0-4.2,0.2-5.1,0.4V24.4z"/>
	<path class="st0" d="M414.3,25.9H398v15.1h18.2v4.5h-23.6V3.7h22.7v4.5H398v13.3h16.3V25.9z"/>
	<path class="st0" d="M529.2,8.3h-12.8V3.7h31.1v4.6h-12.8v37.3h-5.5V8.3z"/>
	<path class="st0" d="M631.5,24.2c0,14.4-8.8,22.1-19.5,22.1c-11.1,0-18.9-8.6-18.9-21.3c0-13.3,8.3-22,19.5-22
		C624.1,3,631.5,11.8,631.5,24.2z M598.9,24.9c0,9,4.9,17,13.4,17c8.6,0,13.4-7.9,13.4-17.4c0-8.3-4.4-17-13.4-17
		C603.4,7.4,598.9,15.7,598.9,24.9z"/>
	<path class="st0" d="M743.4,45.6L732.7,3.7h5.7l5,21.2c1.2,5.2,2.4,10.5,3.1,14.5h0.1c0.7-4.2,2-9.1,3.4-14.6l5.6-21.2h5.7
		l5.1,21.3c1.2,5,2.3,10,2.9,14.4h0.1c0.9-4.6,2.1-9.3,3.4-14.5l5.5-21.2h5.5L772,45.6h-5.7l-5.3-21.8c-1.3-5.4-2.2-9.5-2.7-13.7
		h-0.1c-0.7,4.2-1.7,8.3-3.2,13.7l-6,21.8H743.4z"/>
	<path class="st0" d="M838.3,32.4L834,45.6h-5.6l14.2-41.9h6.5l14.3,41.9h-5.8l-4.5-13.2H838.3z M852.1,28.2L848,16.1
		c-0.9-2.7-1.6-5.2-2.2-7.7h-0.1c-0.6,2.5-1.3,5-2.1,7.6l-4.1,12.1H852.1z"/>
	<path class="st0" d="M912.4,39c2.4,1.5,6,2.7,9.7,2.7c5.5,0,8.8-2.9,8.8-7.2c0-3.9-2.2-6.2-7.9-8.3c-6.8-2.4-11.1-6-11.1-11.9
		c0-6.5,5.4-11.4,13.6-11.4c4.3,0,7.4,1,9.3,2.1l-1.5,4.4c-1.4-0.7-4.2-2-8-2c-5.7,0-7.9,3.4-7.9,6.3c0,3.9,2.6,5.8,8.3,8.1
		c7.1,2.7,10.7,6.2,10.7,12.3c0,6.5-4.8,12.1-14.7,12.1c-4,0-8.5-1.2-10.7-2.7L912.4,39z"/>
	<path class="st0" d="M994.1,32.4l-4.4,13.2h-5.6l14.2-41.9h6.5l14.3,41.9h-5.8l-4.5-13.2H994.1z M1007.9,28.2l-4.1-12.1
		c-0.9-2.7-1.6-5.2-2.2-7.7h-0.1c-0.6,2.5-1.3,5-2.1,7.6l-4.1,12.1H1007.9z"/>
	<path class="st0" d="M1100.9,43.7c-2.4,0.9-7.2,2.3-12.9,2.3c-6.3,0-11.6-1.6-15.7-5.5c-3.6-3.5-5.8-9.1-5.8-15.6
		c0.1-12.5,8.6-21.7,22.7-21.7c4.9,0,8.6,1.1,10.5,1.9l-1.3,4.4c-2.2-1-5-1.8-9.3-1.8c-10.2,0-16.9,6.3-16.9,16.9
		c0,10.6,6.4,16.9,16.2,16.9c3.5,0,6-0.5,7.2-1.1V27.9h-8.5v-4.4h13.8V43.7z"/>
	<path class="st0" d="M1159.5,32.4l-4.4,13.2h-5.6l14.2-41.9h6.5l14.3,41.9h-5.8l-4.5-13.2H1159.5z M1173.3,28.2l-4.1-12.1
		c-0.9-2.7-1.6-5.2-2.2-7.7h-0.1c-0.6,2.5-1.3,5-2.1,7.6l-4.1,12.1H1173.3z"/>
</g>
</svg>
