<?xml version="1.0" encoding="utf-8"?>
<!-- Generator: Adobe Illustrator 24.3.2, SVG Export Plug-In . SVG Version: 6.00 Build 0)  -->
<svg version="1.1" id="Layer_1" xmlns="http://www.w3.org/2000/svg" xmlns:xlink="http://www.w3.org/1999/xlink" x="0px" y="0px"
	 viewBox="0 0 100 100" style="enable-background:new 0 0 100 100;" xml:space="preserve">
<path d="M50,30.7c-10.8,0-19.5,8.5-19.5,18.9c0,10.4,8.7,18.9,19.5,18.9c10.8,0,19.5-8.5,19.5-18.9C69.5,39.2,60.8,30.7,50,30.7
	 M87.5,42.3H79c0.8,2.6,1.2,5.4,1.2,8.3c0,16.2-13.5,29.3-30.2,29.3c-16.7,0-30.2-13.1-30.2-29.3c0-2.9,0.4-5.7,1.2-8.3h-8.9v41
	c0,2.1,1.7,3.9,3.9,3.9h67.7c2.1,0,3.9-1.7,3.9-3.9V42.3z M72.1,12c-2.4,0-4.4,2-4.4,4.4v10.5c0,2.4,2,4.4,4.4,4.4h11
	c2.4,0,4.4-2,4.4-4.4V16.4c0-2.4-2-4.4-4.4-4.4H72.1z M13.8,1.2H86c6.9,0,12.5,5.6,12.5,12.5v72.2c0,6.9-5.6,12.5-12.5,12.5H13.8
	c-6.9,0-12.5-5.6-12.5-12.5V13.7C1.3,6.8,6.9,1.2,13.8,1.2"/>
</svg>
