<svg xmlns="http://www.w3.org/2000/svg" width="26.56" height="26.56" viewBox="0 0 26.56 26.56"><defs><style>.cls-1{fill:#7e7d82;}.cls-2{isolation:isolate;}.cls-3{fill:#fff;}</style></defs><title>icon-9</title><g id="marker"><circle class="cls-1" cx="13.28" cy="13.28" r="13.28"/></g><g id="_9" data-name="9"><g class="cls-2"><path class="cls-3" d="M15.07,22.9c0,.26,0,.38,0,.54,0,.93.22,1.33.72,1.33a.72.72,0,0,0,.59-.34,1.82,1.82,0,0,0,.12-.93v-3a1.92,1.92,0,0,1-1.47.78,1.68,1.68,0,0,1-1.36-.7c-.4-.57-.5-1.11-.5-2.65V15.72c0-1.87,1-3,2.64-3s2.55,1.1,2.55,2.85v8.17a2.47,2.47,0,0,1-2.51,2.76,2.36,2.36,0,0,1-2.22-1.4,5.2,5.2,0,0,1-.3-2.21Zm1.41-7.62a.75.75,0,0,0-.73-.8c-.5,0-.74.32-.74,1v2.89c0,1.1.14,1.42.62,1.42a1.19,1.19,0,0,0,.85-.48Z" transform="translate(-2.45 -7.01)"/></g></g></svg>