<svg xmlns="http://www.w3.org/2000/svg" width="26.56" height="26.56" viewBox="0 0 26.56 26.56"><defs><style>.cls-1{fill:#7e7d82;}.cls-2{isolation:isolate;}.cls-3{fill:#fff;}</style></defs><title>icon-5</title><g id="marker"><circle class="cls-1" cx="13.28" cy="13.28" r="13.28"/></g><g id="_5" data-name="5"><g class="cls-2"><path class="cls-3" d="M15,22.52v.54c0,1.19.24,1.71.76,1.71s.69-.38.69-1.06v-4c0-.64-.21-1-.59-1s-.68.38-.86,1.08H13.39l.2-6.86h4.35l-.06,1.75H15.11L15,17.91c.54-.69,1-.95,1.49-.95,1.16,0,1.82,1.13,1.82,3.07v3.11c0,1.37-.12,1.91-.58,2.47a2.57,2.57,0,0,1-2,.9c-1.58,0-2.48-1.12-2.48-3.15a6,6,0,0,1,0-.84Z" transform="translate(-2.45 -7.01)"/></g></g></svg>