<?xml version="1.0" encoding="utf-8"?>
<!-- Generator: Adobe Illustrator 27.5.0, SVG Export Plug-In . SVG Version: 6.00 Build 0)  -->
<svg version="1.1" id="Layer_1" xmlns="http://www.w3.org/2000/svg" xmlns:xlink="http://www.w3.org/1999/xlink" x="0px" y="0px"
	 viewBox="0 0 387 288.5" enable-background="new 0 0 387 288.5" xml:space="preserve">
<g>
	<path fill="#FFFFFF" d="M34.4,59.3c0,11.1-5.8,15.8-14.5,15.8c-9.3,0-13-5.7-13-15.7c0-3.8,0.4-7.2,0.7-9.7l9,1.1
		c-0.4,2.6-0.6,5.3-0.6,7.6c0,5.9,1,7.4,3.1,7.4c2,0,3.1-1.5,3.1-5.8v-1.9c0-5.1-1.4-9.8-7.3-16.9c-5.8-7-8.2-12.7-8.2-20.6v-1.1
		c0-9,3.5-15.8,13.8-15.8c9.8,0,12.9,6.2,12.9,15.7c0,3.4-0.3,5.8-0.6,8.5l-9.1-1.1c0.3-2.3,0.5-2.9,0.5-6.5c0-6-0.9-7.5-2.8-7.5
		c-2,0-2.6,1.4-2.6,5.4v1.4c0,4,1.5,8,5.8,13.4c5.9,7.6,9.9,15.9,9.9,24.7V59.3z"/>
	<path fill="#FFFFFF" d="M55.2,74h-12V4.9h12V74z"/>
	<path fill="#FFFFFF" d="M94.3,74h-3.2l-1.8-3c-2.5,2.9-5.7,4-11.2,4c-8.1,0-13.3-4.6-13.3-13.9V19.1c0-10.3,5.8-15.4,14.7-15.4
		c8.2,0,13.3,3.2,13.3,15.5c0,3.3-0.3,6.5-0.6,8.8L83,27.3c0.3-2,0.5-3.8,0.5-6.8c0-6.6-1.4-7.6-3.4-7.6c-2.7,0-3.4,1.4-3.4,4.6
		v44.6c0,2.6,1,4,3.3,4c1.9,0,2.9-1.4,2.9-4V40.9h11.4V74z"/>
	<path fill="#FFFFFF" d="M131.6,74.2h-8.8l-8.9-35.5v35.5h-9.9V4.9H114l7.6,30.7V4.9h9.9V74.2z"/>
	<path fill="#FFFFFF" d="M184.9,60.6c0,9.6-5.9,14.5-14.8,14.5c-9.1,0-14.7-4.9-14.7-14.4V4.9h11.9v57c0,2.6,1.3,4,3.4,4
		c1.9,0,2.7-1.4,2.7-4V4.9h11.4V60.6z"/>
	<path fill="#FFFFFF" d="M209.5,49.3h-2.7V74h-12V4.9h14.2c10.3,0,15.3,5.5,15.3,21.9C224.4,44.1,218,49.3,209.5,49.3z M208.1,14.5
		h-1.3v25.3h1.4c2.7,0,4.5-2.7,4.5-13C212.7,17.1,211,14.5,208.1,14.5z"/>
	<path fill="#FFFFFF" d="M40.5,86.9l-1.4,11.6h-1.4c-0.1-8.8-3.2-9.9-10.3-9.9H23L19.9,107h2.8c4.4,0,6.2-1.7,8.2-7.7h1.3l-2.9,17.8
		h-1.4c0-6.7-1-8.2-5.9-8.2h-2.2l-3.1,18.2h6.8l-0.3,1.7H4.8l0.3-1.7h4.1l6.4-38.5h-4.2l0.3-1.7H40.5z"/>
	<path fill="#FFFFFF" d="M38.2,118.3c0-9.4,5.6-18.7,16.4-18.7c7.6,0,11.2,4.1,11.2,11.2c0,9.8-5.8,18.8-16.4,18.8
		C41.8,129.5,38.2,125.2,38.2,118.3z M58.9,108.8c0-5.1-1.3-7.8-5-7.8c-7.6,0-8.9,13.8-8.9,19.1c0,5,1.4,7.9,5,7.9
		C57.9,128,58.9,114.6,58.9,108.8z"/>
	<path fill="#FFFFFF" d="M70.9,117.1l2.2-15.3h-4.6l0.3-1.6h11.1l-2.7,11.5l0.4,0.2c2.6-5.8,5.9-12.2,12.1-12.2
		c2.8,0,5.1,1.1,5.1,4.4c0,3.1-2,4.6-4.6,4.7c-0.8,0-1.7-0.1-2.5-0.4l-0.2-4c-4.2-0.9-7.9,6.3-9.9,13.6c-0.9,3.3-1.3,6.5-1.7,10.7
		c-2.3,0.1-5.5,0.4-7.6,0.8L70.9,117.1z"/>
	<path fill="#FFFFFF" d="M104.7,138.5c-0.4,0.6-0.7,1.3-0.7,1.8c0,1,0.7,1.7,2.2,1.7c3.3,0,7.4-2.9,12.8-11c-2-7.6-4.8-17.5-7-24.5
		c-0.7-2.5-1.3-3.1-2.4-3.1c-1.3,0-2.2,1.3-3.5,4.6l-1.7-0.7c1.6-4.2,3.4-7.3,8-7.3c3.1,0,5,1.7,6.2,5.7c1.8,5.9,3.6,12.5,5.2,18.8
		c2.9-4.4,7.4-12.2,7.4-16.2c0-1.6-0.8-2.6-1.9-2.7l-1.9,2.4c-1.9-0.6-3.1-2.1-3.1-4c0-2.5,1.7-4.4,4.6-4.4c3.5,0,5.4,2.7,5.4,6.4
		c0,5.6-4.8,13.7-8.6,19.4c-5.6,8.3-11.4,18.5-19.9,18.5c-4.4,0-7.1-2.5-7.1-6.4c0-3.1,2-5.1,4.9-5.1c2.7,0,4.7,2.1,3.8,5.7
		L104.7,138.5z"/>
	<path fill="#FFFFFF" d="M135.3,118.3c0-9.4,5.6-18.7,16.4-18.7c7.6,0,11.2,4.1,11.2,11.2c0,9.8-5.8,18.8-16.4,18.8
		C138.9,129.5,135.3,125.2,135.3,118.3z M156,108.8c0-5.1-1.3-7.8-5-7.8c-7.6,0-8.9,13.8-8.9,19.1c0,5,1.4,7.9,5,7.9
		C155.1,128,156,114.6,156,108.8z"/>
	<path fill="#FFFFFF" d="M170.8,101.8h-4.5l0.2-1.6h11.4c-0.7,3-4.1,19.9-4.4,21.2c-0.2,1-0.3,1.8-0.3,2.6c0,1.7,0.6,2.8,2.8,2.8
		c4.2,0,7.9-6.4,10-14.3c1.1-4.1,1.7-7.6,2.1-11.9c1.9,0.1,5.9-0.3,7.6-0.7c-1.7,7.9-3.7,17.5-4.3,21.3c-0.3,1.7-0.4,3-0.4,3.9
		c0,1.3,0.5,2.2,1.8,2.2c1.3,0,2.3-0.8,3.7-2.8l1.3,0.9c-1.5,2.2-3.6,4.1-6.8,4.1c-4,0-5.8-1.7-5.8-4.9c0-1,0.2-2.2,0.6-3.6l0.5-1.8
		l-0.4-0.1c-2.3,5-5.6,10.4-12.2,10.4c-4.9,0-6.7-2.8-6.7-6.7c0-0.8,0.1-1.7,0.2-2.7C167.9,115.7,169.6,107.6,170.8,101.8z"/>
	<path fill="#FFFFFF" d="M202.1,117.1l2.2-15.3h-4.6l0.3-1.6H211l-2.7,11.5l0.4,0.2c2.6-5.8,5.9-12.2,12.1-12.2
		c2.8,0,5.1,1.1,5.1,4.4c0,3.1-2,4.6-4.6,4.7c-0.8,0-1.7-0.1-2.5-0.4l-0.2-4c-4.2-0.9-7.9,6.3-9.9,13.6c-0.9,3.3-1.3,6.5-1.7,10.7
		c-2.3,0.1-5.5,0.4-7.6,0.8L202.1,117.1z"/>
	<path fill="#FFFFFF" d="M242.1,101.8h-4.5l0.2-1.6h4.5l0.7-3.7c1.4-8.4,6-14,14.1-14c4.3,0,7.7,2.2,7.7,5.9c0,2.8-1.7,4.7-4.6,4.7
		c-2.9,0-4.1-2.4-3.3-5l2.2-0.2c1.1-2.5-0.1-3.9-2.2-3.9c-4.2,0-5.6,4.7-6.5,10l-1.1,6.3h8.2l-0.3,1.6H249l-5.2,28.3
		c-1.6,8.7-5.4,13.9-13.4,13.9c-4.4,0-7.7-2.2-7.7-5.8c0-2.7,1.7-4.9,4.7-4.9c2.8,0,4.3,2.3,3.2,5.3l-2.3,0.2
		c-1.4,2.3,0.1,3.7,2.3,3.7c4.1,0,4.7-3.7,5.8-9.5L242.1,101.8z"/>
	<path fill="#FFFFFF" d="M257.7,117.1l2.2-15.3h-4.6l0.3-1.6h11.1l-2.7,11.5l0.4,0.2c2.6-5.8,5.9-12.2,12.1-12.2
		c2.8,0,5.1,1.1,5.1,4.4c0,3.1-2,4.6-4.6,4.7c-0.8,0-1.7-0.1-2.5-0.4l-0.2-4c-4.2-0.9-7.9,6.3-9.9,13.6c-0.9,3.3-1.3,6.5-1.7,10.7
		c-2.3,0.1-5.5,0.4-7.6,0.8L257.7,117.1z"/>
	<path fill="#FFFFFF" d="M281.2,118.3c0-9.4,5.6-18.7,16.4-18.7c7.6,0,11.2,4.1,11.2,11.2c0,9.8-5.8,18.8-16.4,18.8
		C284.8,129.5,281.2,125.2,281.2,118.3z M301.9,108.8c0-5.1-1.3-7.8-5-7.8c-7.6,0-8.9,13.8-8.9,19.1c0,5,1.4,7.9,5,7.9
		C300.9,128,301.9,114.6,301.9,108.8z"/>
	<path fill="#FFFFFF" d="M329.6,124c0-1.9,1-5.8,1.9-9.2l1.9-7.2c0.3-1.2,0.4-2.2,0.4-2.9c0-1.6-0.6-2.3-2-2.3
		c-3.9,0-7.9,5.6-9.9,11.5c-1.4,4.1-2.2,9.2-2.8,14.9c-1.9-0.1-5.8,0.2-7.5,0.6l2.3-10.9l2.2-16.7h-4.5l0.2-1.6H323l-2.5,10.4
		l0.4,0.2c2.5-5.2,6.5-11.2,12.9-11.2c4.2,0,6.4,2.3,6.4,6.4c0,1.1-0.2,2.5-0.5,3.8c-0.8,2.9-2.6,10.1-3.1,12.4
		c-0.2,1-0.5,2.3-0.5,3.2c0,1.4,0.6,1.9,1.6,1.9c1.4,0,2.8-1.1,4-2.8l1.3,1c-1.6,2.3-3.8,4.1-7.2,4.1
		C331.8,129.5,329.6,127.7,329.6,124z"/>
	<path fill="#FFFFFF" d="M356.8,101.8l-3.1,16.8c-0.5,2.8-0.8,4.5-0.8,5.5c0,1.8,0.8,2.8,2.6,2.8c2.2,0,3.6-1.4,5.5-4l1.4,1
		c-2,3.1-4.9,5.7-8.9,5.7c-5.2,0-7.3-2.9-7.3-6.5c0-2.1,0.4-4.4,1.1-7.9l2.6-13.4h-4.3l0.2-1.6h4.3l1.1-7l7.3-1.9l-1.4,8.8h6.3
		l-0.2,1.6H356.8z"/>
	<path fill="#FFFFFF" d="M5.8,182.3c0-9.4,5.6-18.7,16.4-18.7c7.6,0,11.2,4.1,11.2,11.2c0,9.8-5.8,18.8-16.4,18.8
		C9.4,193.5,5.8,189.2,5.8,182.3z M26.5,172.8c0-5.1-1.3-7.8-5-7.8c-7.6,0-8.9,13.8-8.9,19.1c0,5,1.4,7.9,5,7.9
		C25.5,192,26.5,178.6,26.5,172.8z"/>
	<path fill="#FFFFFF" d="M41.1,165.8h-4.5l0.2-1.6h4.5l0.7-3.7c1.4-8.4,6-14,14.1-14c4.3,0,7.7,2.2,7.7,5.9c0,2.8-1.7,4.7-4.6,4.7
		c-2.9,0-4.1-2.4-3.3-5l2.2-0.2c1.1-2.5-0.1-3.9-2.2-3.9c-4.2,0-5.6,4.7-6.5,10l-1.1,6.3h8.2l-0.3,1.6h-8.1L42.9,194
		c-1.6,8.7-5.4,13.9-13.4,13.9c-4.4,0-7.7-2.2-7.7-5.8c0-2.7,1.7-4.9,4.7-4.9c2.8,0,4.3,2.3,3.2,5.3l-2.3,0.2
		c-1.4,2.3,0.1,3.7,2.3,3.7c4.1,0,4.7-3.7,5.8-9.5L41.1,165.8z"/>
	<path fill="#FFFFFF" d="M76.7,165.8l-3.1,16.8c-0.5,2.8-0.8,4.5-0.8,5.5c0,1.8,0.8,2.8,2.6,2.8c2.2,0,3.6-1.4,5.5-4l1.4,1
		c-2,3.1-4.9,5.7-8.9,5.7c-5.2,0-7.3-2.9-7.3-6.5c0-2.1,0.4-4.4,1.1-7.9l2.6-13.4h-4.3l0.2-1.6H70l1.1-7l7.3-1.9l-1.4,8.8h6.3
		l-0.2,1.6H76.7z"/>
	<path fill="#FFFFFF" d="M102,188c0-4,2.7-11.8,3.7-16.4c0.3-1.2,0.4-2.2,0.4-2.9c0-1.6-0.6-2.3-2-2.3c-3.9,0-7.9,5.6-9.9,11.5
		c-1.4,4.1-2.2,9.2-2.8,14.9c-1.9-0.1-5.8,0.2-7.5,0.6l2.3-10.9l5.2-33h-4.5l0.2-1.6h11.3l-5.5,26.7l0.4,0.2
		c2.5-5.2,6.5-11.2,12.9-11.2c4.2,0,6.4,2.2,6.4,6.2c0,1.1-0.2,2.6-0.5,3.9c-0.7,2.9-2.5,9.4-3.1,12.4c-0.2,1-0.5,2.3-0.5,3.2
		c0,1.4,0.7,1.9,1.7,1.9c1.4,0,2.8-1.1,4-2.8l1.3,1c-1.6,2.3-3.8,4.1-7.2,4.1C104.3,193.5,102,191.7,102,188z"/>
	<path fill="#FFFFFF" d="M141.6,170.5c0,6.2-6.2,8.1-11.3,9.1c-2,0.4-4.2,0.6-6.4,0.7v0.8c0,7.3,1.7,10,5.9,10
		c3.4,0,7.1-1.9,9.3-8.2l1.6,0.5c-2,6.7-6.7,10.1-13.3,10.1c-7,0-10.8-4.2-10.8-11.3c0-10.2,6.7-18.7,16.4-18.7
		C138.5,163.6,141.6,166,141.6,170.5z M132.2,165.2c-3.5,0-7.1,4.9-8.1,13.3c6.5-0.4,11.3-2.5,11.3-8.9
		C135.4,166.7,134.3,165.2,132.2,165.2z"/>
	<path fill="#FFFFFF" d="M176.6,150.9l-0.3,1.7h-5.9l-6.5,38.5h3.7c8.8,0,12.1-2.8,15.2-11.8h1.4l-2.8,13.6h-29.2l0.2-1.7h4.2
		l6.4-38.5h-4.3l0.3-1.7H176.6z"/>
	<path fill="#FFFFFF" d="M200.9,189.3c-1.8,2.7-3.9,4.2-7.1,4.2c-3.8,0-6.1-1.7-6.1-5.6c0-1.2,0.3-3.5,0.9-6.3
		c0.7-3.2,2.9-13.6,3.5-15.8h-4.8l0.3-1.6h11.5c-0.7,3.2-4.4,21.2-4.6,22.3c-0.2,1.1-0.4,2-0.4,2.7c0,1.5,0.6,2,1.7,2
		c1.3,0,2.2-0.8,3.7-2.8L200.9,189.3z M192.1,155.2c0-2.6,1.9-4.7,5-4.7c2.3,0,3.8,1,3.8,3.5c0,2.8-1.9,4.7-5,4.7
		C193.1,158.7,192.1,157.1,192.1,155.2z"/>
	<path fill="#FFFFFF" d="M220.7,188c0-1.9,1-5.8,1.9-9.2l1.9-7.2c0.3-1.2,0.4-2.2,0.4-2.9c0-1.6-0.6-2.3-2-2.3
		c-3.9,0-7.9,5.6-9.9,11.5c-1.4,4.1-2.2,9.2-2.8,14.9c-1.9-0.1-5.8,0.2-7.5,0.6l2.3-10.9l2.2-16.7h-4.5l0.2-1.6h11.3l-2.5,10.4
		l0.4,0.2c2.5-5.2,6.5-11.2,12.9-11.2c4.2,0,6.4,2.3,6.4,6.4c0,1.1-0.2,2.5-0.5,3.8c-0.8,2.9-2.6,10.1-3.1,12.4
		c-0.2,1-0.5,2.3-0.5,3.2c0,1.4,0.6,1.9,1.6,1.9c1.4,0,2.8-1.1,4-2.8l1.3,1c-1.6,2.3-3.8,4.1-7.2,4.1
		C223,193.5,220.7,191.7,220.7,188z"/>
	<path fill="#FFFFFF" d="M260.4,170.5c0,6.2-6.2,8.1-11.3,9.1c-2,0.4-4.2,0.6-6.4,0.7v0.8c0,7.3,1.7,10,5.9,10
		c3.4,0,7.1-1.9,9.3-8.2l1.6,0.5c-2,6.7-6.7,10.1-13.3,10.1c-7,0-10.8-4.2-10.8-11.3c0-10.2,6.7-18.7,16.4-18.7
		C257.3,163.6,260.4,166,260.4,170.5z M251,165.2c-3.5,0-7.1,4.9-8.1,13.3c6.5-0.4,11.3-2.5,11.3-8.9
		C254.2,166.7,253.1,165.2,251,165.2z"/>
	<path fill="#FFFFFF" d="M19.9,283.2h-12v-69.1h12V283.2z"/>
	<path fill="#FFFFFF" d="M57.8,283.4h-8.8L40,247.9v35.5h-9.9v-69.3h10.1l7.6,30.7v-30.7h9.9V283.4z"/>
	<path fill="#FFFFFF" d="M97.5,214.1L89,283.4H74.8l-8.6-69.3h12.3l3.8,45.2l4.2-45.2H97.5z"/>
	<path fill="#FFFFFF" d="M117.4,283.2h-12v-69.1h12V283.2z"/>
	<path fill="#FFFFFF" d="M156.9,223.7h-9.4v59.8h-12v-59.8h-9.4v-9.5h30.8V223.7z"/>
	<path fill="#FFFFFF" d="M194.7,283.2h-12.1l-0.9-9.6h-7.1l-0.9,9.6h-10l8.9-69.1h12.9L194.7,283.2z M180.5,264l-2.2-27.5l-2.8,27.5
		H180.5z"/>
	<path fill="#FFFFFF" d="M232.3,223.7h-9.5v59.8h-12v-59.8h-9.4v-9.5h30.8V223.7z"/>
	<path fill="#FFFFFF" d="M253,283.2h-12v-69.1h12V283.2z"/>
	<path fill="#FFFFFF" d="M292.4,269c0,11.3-6.8,15.3-14.8,15.3c-8.2,0-15.1-4.2-15.1-15.3v-40.8c0-11.2,7-15.3,15.1-15.3
		s14.8,4,14.8,15.3V269z M280.5,225.9c0-2.7-1.5-3.8-3-3.8c-1.8,0-3.1,1.1-3.1,3.8v45.4c0,2.6,1.2,3.8,3.1,3.8
		c1.8,0,2.9-1.1,2.9-3.7V225.9z"/>
	<path fill="#FFFFFF" d="M329.7,283.4h-8.8l-8.9-35.5v35.5H302v-69.3h10.1l7.6,30.7v-30.7h9.9V283.4z"/>
</g>
</svg>
